<svg width="1728" height="259" viewBox="0 0 1728 259" fill="none" xmlns="http://www.w3.org/2000/svg">
<path d="M-43 186.834C-19.6188 187.781 3.14512 193.366 26.5772 193.754C55.1934 194.227 81.6315 191.703 109.333 184.143C187.392 162.843 262.094 119.649 329.693 76.7944C370.759 50.7613 412.36 22.484 460.708 11.9238C493.021 4.86584 527.379 4.30368 560.325 5.48469C625.49 7.82064 696.583 20.4753 753.94 51.9034C811.067 83.2056 866.63 117.322 921.003 153.101C951.478 173.156 980.524 195.525 1011.32 215.089C1032 228.23 1055.89 240.024 1079.93 245.65C1142.52 260.305 1205.6 252.845 1268.4 244.689C1333.33 236.258 1396.12 225.535 1457.95 203.268C1523.38 179.702 1583.1 146.439 1641.87 109.854C1682.51 84.5591 1724.5 60.9925 1764.36 34.5083C1770.27 30.5831 1782.53 24.6683 1785 17.3057" stroke="#008080" stroke-width="8" stroke-linecap="round" stroke-dasharray="20 20"/>
</svg>
