<svg width="1728" height="464" viewBox="0 0 1728 464" fill="none" xmlns="http://www.w3.org/2000/svg">
<g opacity="0.2">
<path d="M2128.13 309.703C2064.46 331.101 1985 336.684 1913 340.184C1843.72 343.552 1772.45 338.327 1704.15 331.637C1599.01 321.341 1498.44 292.466 1398.71 271.293C1328.93 256.478 1261.69 239.776 1194.21 221.658C1134.18 205.539 1073.27 190.372 1009.59 179.953C899.257 161.899 792.416 159.753 679.049 168.625C514.627 181.494 348.592 204.304 193.697 239.473C-14.5775 286.762 -204.898 353.969 -398 419.064" stroke="url(#paint0_linear_1053_1740)" stroke-linecap="round"/>
<path d="M-322.687 333.8C-226.089 337.273 -132.33 353.854 -34.6832 351.511C61.9085 349.194 161.115 324.967 250.356 307.335C541.04 249.901 551.266 245.751 876.049 182.733C993.641 159.916 1111.08 136.775 1229.6 115.695C1309.83 101.426 1466.66 71.9254 1568.86 70.7976C1578.64 70.6897 1649.16 82.5675 1660.21 84.5965C1680.62 88.3441 1712.75 95.3375 1732.74 100.043C1789.86 113.49 1843.49 129.398 1894.52 149.678C1939.52 167.557 1982.46 187.098 2026.84 205.491C2115.21 242.117 2210.06 267.428 2307 294.874" stroke="url(#paint1_linear_1053_1740)" stroke-linecap="round"/>
<path d="M-328.963 459.843C-237.989 470.098 -140.76 453 -51.5941 442.337C-12.693 437.685 26.0898 432.909 64.5138 426.993C141.978 415.068 212.335 393.481 282.957 371.592C415.104 330.633 543.684 286.229 670.332 239.679C792.584 194.744 919.074 154.592 1047.25 115.901C1288.61 43.0446 1574.11 -28.6011 1850.59 13.5427C1883.38 18.5411 1915.12 25.6846 1947.52 31.4607C1989.81 39.0006 2033.21 44.575 2074.78 53.4976C2114.53 62.0282 2148.68 74.9594 2183.22 89.1275C2223.48 105.643 2264.59 119.241 2307 133.613" stroke="url(#paint2_linear_1053_1740)" stroke-linecap="round"/>
<path d="M2103.03 291.167C2103.03 269.573 2044.93 276.485 2019.35 277.986C1976.6 280.495 1934.53 285.138 1891.38 285.195C1813 285.299 1734.22 276.811 1658.12 266.453C1556.37 252.603 1460.29 226.12 1363.14 204.049C1288.22 187.027 1214.06 168.021 1137.9 152.973C1067.08 138.979 994.227 125.694 921.376 115.901C819.964 102.27 712.801 100.234 609.314 103.338C463.338 107.718 312.814 125.688 174.171 152.561C-23.6717 190.909 -204.245 257.893 -385.448 317.117" stroke="url(#paint3_linear_1053_1740)" stroke-linecap="round"/>
</g>
<defs>
<linearGradient id="paint0_linear_1053_1740" x1="-398" y1="291.307" x2="2128.13" y2="291.307" gradientUnits="userSpaceOnUse">
<stop stop-color="#00A761"/>
<stop offset="1" stop-color="white"/>
</linearGradient>
<linearGradient id="paint1_linear_1053_1740" x1="-322.687" y1="211.267" x2="2307" y2="211.267" gradientUnits="userSpaceOnUse">
<stop stop-color="#00A761"/>
<stop offset="1" stop-color="white"/>
</linearGradient>
<linearGradient id="paint2_linear_1053_1740" x1="-328.963" y1="232" x2="2307" y2="232" gradientUnits="userSpaceOnUse">
<stop stop-color="#00A761"/>
<stop offset="1" stop-color="white"/>
</linearGradient>
<linearGradient id="paint3_linear_1053_1740" x1="-385.448" y1="209.595" x2="2103.03" y2="209.595" gradientUnits="userSpaceOnUse">
<stop stop-color="#00A761"/>
<stop offset="1" stop-color="white"/>
</linearGradient>
</defs>
</svg>
