<svg width="1728" height="947" viewBox="0 0 1728 947" fill="none" xmlns="http://www.w3.org/2000/svg">
<path d="M2594 -0.000333899C2594 145.898 2551.24 290.368 2468.17 425.161C2385.1 559.954 2263.34 682.43 2109.85 785.596C1956.35 888.761 1774.13 970.597 1573.58 1026.43C1373.02 1082.26 1158.08 1111 941 1111C723.925 1111 508.976 1082.26 308.424 1026.43C107.873 970.598 -74.3521 888.762 -227.847 785.596C-381.343 682.43 -503.102 559.954 -586.173 425.161C-669.244 290.369 -712 145.899 -712 0.00012207L-251.27 4.15137e-05C-251.27 105.233 -220.431 209.436 -160.513 306.659C-100.596 403.882 -12.7744 492.221 97.9381 566.632C208.651 641.043 340.085 700.069 484.738 740.34C629.391 780.611 784.429 801.338 941 801.338C1097.57 801.338 1252.61 780.611 1397.26 740.34C1541.91 700.069 1673.35 641.043 1784.06 566.631C1894.77 492.22 1982.6 403.881 2042.51 306.659C2102.43 209.436 2133.27 105.233 2133.27 -0.000253342L2594 -0.000333899Z" fill="white"/>
</svg>
