<svg width="1032" height="705" viewBox="0 0 1032 705" fill="none" xmlns="http://www.w3.org/2000/svg">
<path d="M104.858 69.1199C174.642 52.6272 243.924 36.0686 315.056 26.4761C425.865 11.533 537.476 6.0025 649.188 3.82154C730.613 2.23189 814.109 2.51974 891.725 30.5628C924.987 42.5802 965.732 59.2905 990.517 85.4667C1046.02 144.086 1038.71 228.277 990.872 289.979C933.505 363.977 837.381 372.504 751.978 378.91C669.076 385.127 586.97 397.746 503.933 402.63C431.242 406.906 360.595 418.497 288.759 429.549C238.765 437.241 185.499 438.641 139.772 462.687C119.282 473.462 99.7131 485.271 78.8271 495.381C55.9413 506.458 35.4441 520.827 20.0141 541.4C-2.44804 571.35 -4.16398 625.786 22.6794 652.63C58.8798 688.83 124.51 700.078 173.177 702.203C221.628 704.319 269.758 697.307 317.455 689.765C380.979 679.721 444.396 668.828 507.753 657.782C609.638 640.019 711.043 626.652 814.078 617.982C832.46 616.435 851.888 617.349 870.048 613.717" stroke="#008080" stroke-width="5" stroke-linecap="round" stroke-dasharray="20 20"/>
</svg>
