<svg width="1724" height="137" viewBox="0 0 1724 137" fill="none" xmlns="http://www.w3.org/2000/svg">
<path d="M-4 146.5C-4 98.483 24.2799 54.9706 68.1598 35.4724L107.115 18.1624C166.132 -8.06186 234.501 -1.99404 287.976 34.214L299.737 42.1769C365.938 87.0014 452.265 88.8631 520.337 46.9343L534.527 38.1939C595.692 0.519426 673.495 3.2436 731.876 45.1038C791.384 87.7727 870.933 89.7073 932.445 49.9816L943.173 43.0534C1006.66 2.05171 1088.01 0.984129 1152.55 40.3055L1162.02 46.0726C1232.07 88.7519 1320.32 87.7782 1389.42 43.5638L1405.37 33.3551C1461.63 -2.64343 1531.79 -9.29328 1593.81 15.4963L1650.68 38.2281C1694.96 55.9288 1724 98.8111 1724 146.5H-4Z" fill="white"/>
</svg>
