<svg width="51" height="50" viewBox="0 0 51 50" fill="none" xmlns="http://www.w3.org/2000/svg">
<path fill-rule="evenodd" clip-rule="evenodd" d="M31.2536 7.98966C32.555 8.4172 33.2584 9.80355 32.8246 11.0862L22.8886 40.4622C22.4547 41.7448 21.048 42.438 19.7465 42.0104C18.4451 41.5829 17.7417 40.1965 18.1755 38.9139L28.1115 9.53791C28.5453 8.2553 29.9521 7.56212 31.2536 7.98966ZM14.8365 15.925C15.8066 16.881 15.8066 18.431 14.8365 19.387L9.14095 25L14.8365 30.613C15.8066 31.569 15.8066 33.119 14.8365 34.075C13.8664 35.031 12.2937 35.031 11.3236 34.075L3.87159 26.731C2.90153 25.775 2.90153 24.225 3.87159 23.269L11.3236 15.925C12.2937 14.969 13.8664 14.969 14.8365 15.925ZM36.1636 15.925C37.1337 14.969 38.7064 14.969 39.6765 15.925L47.1285 23.269C48.0986 24.225 48.0986 25.775 47.1285 26.731L39.6765 34.075C38.7064 35.031 37.1337 35.031 36.1636 34.075C35.1935 33.119 35.1935 31.569 36.1636 30.613L41.8591 25L36.1636 19.387C35.1935 18.431 35.1935 16.881 36.1636 15.925Z" fill="white"/>
</svg>
