<svg width="51" height="51" viewBox="0 0 51 51" fill="none" xmlns="http://www.w3.org/2000/svg">
<path d="M5.62793 27.984C5.62793 26.6121 6.74005 25.5 8.11193 25.5H13.0799C14.4518 25.5 15.5639 26.6121 15.5639 27.984V40.404C15.5639 41.7759 14.4518 42.888 13.0799 42.888H8.11193C6.74005 42.888 5.62793 41.7759 5.62793 40.404V27.984Z" fill="white"/>
<path d="M20.5319 18.048C20.5319 16.6761 21.6441 15.564 23.0159 15.564H27.9839C29.3558 15.564 30.4679 16.6761 30.4679 18.048V40.404C30.4679 41.7759 29.3558 42.888 27.9839 42.888H23.0159C21.6441 42.888 20.5319 41.7759 20.5319 40.404V18.048Z" fill="white"/>
<path d="M35.4359 10.596C35.4359 9.22413 36.5481 8.112 37.9199 8.112H42.8879C44.2598 8.112 45.3719 9.22412 45.3719 10.596V40.404C45.3719 41.7759 44.2598 42.888 42.8879 42.888H37.9199C36.5481 42.888 35.4359 41.7759 35.4359 40.404V10.596Z" fill="white"/>
</svg>
