<svg width="41" height="40" viewBox="0 0 41 40" fill="none" xmlns="http://www.w3.org/2000/svg">
<path d="M16.6084 13.5859C16.993 13.3296 17.4679 13.1004 18.0159 12.9231L18.0159 17.1409C17.4679 16.9636 16.993 16.7344 16.6084 16.4781C15.704 15.8751 15.5319 15.3149 15.5319 15.032C15.5319 14.7491 15.704 14.1889 16.6084 13.5859Z" fill="white"/>
<path d="M22.984 27.0769L22.984 22.8591C23.532 23.0365 24.0069 23.2656 24.3915 23.5219C25.2959 24.1249 25.468 24.6851 25.468 24.968C25.468 25.2509 25.2959 25.8111 24.3915 26.4141C24.007 26.6704 23.532 26.8996 22.984 27.0769Z" fill="white"/>
<path fill-rule="evenodd" clip-rule="evenodd" d="M20.4999 39.872C31.4749 39.872 40.3719 30.975 40.3719 20C40.3719 9.025 31.4749 0.128006 20.4999 0.128006C9.52493 0.128006 0.62793 9.025 0.62793 20C0.62793 30.975 9.52493 39.872 20.4999 39.872ZM22.9839 7.58001C22.9839 6.20813 21.8718 5.09601 20.4999 5.09601C19.1281 5.09601 18.0159 6.20813 18.0159 7.58001V7.80852C16.4719 8.09849 15.0438 8.65824 13.8527 9.45229C12.0601 10.6474 10.5639 12.5712 10.5639 15.032C10.5639 17.4928 12.0601 19.4166 13.8527 20.6117C15.0438 21.4058 16.4719 21.9655 18.016 22.2555L18.016 27.0775C17.0447 26.7622 16.3248 26.2892 15.9211 25.8241C15.022 24.7879 13.4531 24.6767 12.417 25.5758C11.3808 26.4749 11.2697 28.0438 12.1688 29.08C13.566 30.6902 15.6799 31.7514 18.0159 32.1906L18.0159 32.42C18.0159 33.7918 19.128 34.904 20.4999 34.904C21.8718 34.904 22.9839 33.7919 22.9839 32.4201L22.9839 32.1915C24.528 31.9015 25.9561 31.3418 27.1472 30.5477C28.9399 29.3526 30.436 27.4288 30.436 24.968C30.436 22.5072 28.9398 20.5834 27.1472 19.3883C25.9561 18.5942 24.528 18.0345 22.9839 17.7445L22.9839 12.9225C23.9552 13.2378 24.6752 13.7108 25.0788 14.176C25.9779 15.2121 27.5468 15.3233 28.5829 14.4242C29.6191 13.5251 29.7303 11.9562 28.8312 10.92C27.4339 9.30978 25.32 8.24858 22.9839 7.80942V7.58001Z" fill="white"/>
</svg>
