<svg width="410" height="142" viewBox="0 0 410 142" fill="none" xmlns="http://www.w3.org/2000/svg">
<path d="M116.829 34.1166C115.862 35.0739 115.071 36.3794 114.016 37.0757C106.456 41.6013 98.8079 46.127 91.1599 50.5656C82.8087 55.5265 74.3696 60.4003 65.9305 65.2741C64.3482 66.2314 62.5021 66.8406 60.744 67.3628C58.2826 68.0591 55.9091 67.2758 53.7993 66.2314C49.316 63.7945 44.8328 61.3576 40.4374 58.8337C29.9764 52.9155 19.6033 46.9973 9.23027 41.0791C8.87864 40.9051 8.52701 40.731 7.99957 40.3829C7.99957 40.9921 7.99957 41.4273 7.99957 41.7754C7.99957 52.6544 7.99957 63.6205 7.99957 74.4995C7.99957 77.1975 6.32933 79.0251 3.86792 78.9381C1.93396 78.8511 0.351629 77.3715 0.175815 75.5439C0.0879074 75.0217 0.0879074 74.4124 0.0879074 73.8902C0.0879074 61.6187 0.175815 49.4342 0 37.1627C0 34.1166 1.2307 31.9408 3.51629 30.2872C5.18653 29.1558 6.94468 28.1114 8.70283 27.067C22.0647 19.4952 35.3388 11.8364 48.7007 4.26457C51.6895 2.61096 54.5905 0.783289 58.0189 0H59.777C62.678 0.609225 65.1394 2.08877 67.6008 3.48128C73.1389 6.70147 78.765 9.92166 84.3032 13.1418C93.8851 18.7119 103.467 24.282 113.049 29.852C114.543 30.7223 115.95 31.7667 116.741 33.3333V34.1166H116.829ZM58.8979 59.0078C60.8319 59.0078 62.5021 58.2245 64.0845 57.2671C74.8971 51.0878 85.7097 44.8215 96.4344 38.5552C98.2804 37.5108 99.9507 36.1183 101.533 34.8128C102.5 34.0295 102.5 33.2463 101.533 32.3759C100.918 31.8537 100.214 31.4186 99.5991 30.9834C87.5557 24.0209 75.4245 17.0583 63.3812 10.0087C60.3924 8.26805 57.5793 8.18102 54.5905 9.92166C46.2393 14.7084 37.976 19.4082 29.6248 24.1079C25.3173 26.5448 21.0099 28.9817 16.7903 31.5056C14.1531 33.0722 14.1531 34.2906 16.7024 35.9443C19.5154 37.7719 22.4164 39.5126 25.3173 41.1662C34.5476 46.4751 43.7779 51.6971 53.0961 56.919C54.8542 58.0504 56.7882 59.0078 58.8979 59.0078Z" fill="white"/>
<path d="M23.7349 125.935H15.8232V124.542C15.8232 106.44 15.8232 88.3369 15.8232 70.2342C15.8232 67.9714 15.7353 65.7086 15.8232 63.4457C15.9991 61.0959 17.7572 59.6163 19.867 59.8774C20.6582 59.9644 21.5372 60.3126 22.2405 60.7477C30.7675 65.6215 39.2945 70.4083 47.8215 75.2821C56.7881 80.417 65.7546 85.5519 74.7212 90.5997C74.9849 90.7738 75.3365 90.9479 75.7761 91.1219C75.7761 89.2943 75.7761 87.6406 75.7761 85.987C75.7761 82.9409 75.7761 79.8078 75.7761 76.7616C75.7761 73.8896 76.9189 71.8008 79.5561 70.3213C85.0943 67.2751 90.6324 64.055 96.0827 60.9218C97.4892 60.1385 98.8957 59.7904 100.39 60.5737C101.709 61.1829 102.324 62.3143 102.5 63.7068C102.588 64.0549 102.5 64.4031 102.5 64.8382C102.5 84.7686 102.5 104.786 102.5 124.716C102.5 125.064 102.5 125.413 102.5 125.935H94.5882V70.9305C94.1487 71.1916 93.885 71.2786 93.5334 71.4527C90.8082 73.0193 88.0831 74.6729 85.358 75.9783C83.8635 76.6746 83.5119 77.632 83.5119 79.1115C83.5998 94.1681 83.5119 109.312 83.5119 124.368V125.935C81.7538 125.935 80.0835 125.848 78.4133 125.935C76.5672 126.022 75.0728 125.587 73.4905 124.629C63.5569 118.798 53.5355 113.141 43.602 107.397C43.2503 107.223 42.8987 107.049 42.3713 106.788V125.848H34.4596C34.4596 125.5 34.3717 125.239 34.3717 124.89C34.3717 109.138 34.3717 93.4718 34.3717 77.719C34.3717 77.3709 34.108 76.7616 33.8443 76.5876C30.5917 74.6729 27.2512 72.7582 23.9986 70.9305C23.9107 70.8435 23.7349 70.8435 23.4712 70.7564L23.7349 125.935ZM42.635 81.4614V82.8539C42.635 87.4666 42.635 91.9923 42.635 96.605C42.635 97.4753 42.8987 97.9104 43.602 98.3456C53.975 104.264 64.3481 110.095 74.7212 116.013C74.9849 116.187 75.3365 116.361 75.7761 116.535V115.317C75.7761 110.704 75.7761 106.004 75.7761 101.392C75.7761 100.608 75.5123 100.173 74.8091 99.7381C64.436 93.907 54.1509 87.9888 43.7778 82.0706C43.5141 81.9836 43.1624 81.8095 42.635 81.4614Z" fill="white"/>
<path d="M134.322 65.6221V20.9746H142.849L161.925 51.6099V20.9746H169.749V65.6221H161.31L142.234 34.9868V65.6221H134.322Z" fill="white"/>
<path d="M191.198 66.492C188.21 66.492 185.572 65.7087 183.111 64.2291C180.649 62.7496 178.716 60.6608 177.309 58.1369C175.902 55.613 175.111 52.7409 175.111 49.6948C175.111 47.3449 175.551 45.1691 176.342 43.1674C177.221 41.1656 178.364 39.338 179.77 37.7714C181.265 36.2048 182.935 34.9863 184.869 34.116C186.803 33.2457 188.913 32.8105 191.11 32.8105C193.66 32.8105 195.945 33.3327 198.055 34.3771C200.165 35.4215 201.923 36.9011 203.417 38.7287C204.912 40.5564 205.967 42.6452 206.582 44.995C207.285 47.3449 207.373 49.7818 207.022 52.3057H183.463C183.726 53.5242 184.254 54.5686 184.957 55.5259C185.66 56.4833 186.539 57.2666 187.594 57.7888C188.649 58.311 189.88 58.6591 191.198 58.6591C192.605 58.6591 193.836 58.398 194.978 57.7017C196.121 57.0055 197.088 56.1351 197.791 55.0037L205.791 56.8314C204.472 59.7035 202.538 61.9663 199.901 63.794C197.352 65.5346 194.451 66.492 191.198 66.492ZM183.287 46.4746H199.11C198.846 45.1691 198.407 44.0377 197.616 42.9933C196.824 41.9489 195.945 41.1656 194.803 40.5564C193.66 39.9472 192.517 39.5991 191.198 39.5991C189.88 39.5991 188.737 39.8601 187.594 40.4694C186.539 41.0786 185.572 41.8619 184.781 42.9063C184.078 44.0377 183.55 45.1691 183.287 46.4746Z" fill="white"/>
<path d="M227.416 65.6224H219.592L208.868 33.6816H216.604L223.636 54.3082L230.581 33.6816H238.317L245.261 54.3082L252.294 33.6816H260.03L249.305 65.6224H241.481L234.449 44.9088L227.416 65.6224Z" fill="white"/>
<path d="M282.974 41.5144H276.732V65.6223H268.909V41.5144H264.162V33.7686H268.909V23.6729H276.732V33.6815H282.974V41.5144Z" fill="white"/>
<path d="M302.226 66.492C299.237 66.492 296.6 65.7087 294.138 64.2291C291.677 62.7496 289.743 60.6608 288.336 58.1369C286.93 55.613 286.139 52.7409 286.139 49.6948C286.139 47.3449 286.578 45.1691 287.369 43.1674C288.248 41.1656 289.391 39.338 290.798 37.7714C292.292 36.2048 293.962 34.9863 295.896 34.116C297.83 33.2457 299.94 32.8105 302.138 32.8105C305.127 32.8105 307.764 33.5938 310.225 35.0734C312.687 36.5529 314.621 38.6417 316.027 41.1656C317.434 43.6896 318.225 46.5616 318.225 49.6948C318.225 52.0446 317.785 54.2204 316.994 56.2222C316.203 58.2239 314.972 60.0516 313.566 61.5311C312.071 63.0977 310.401 64.3162 308.467 65.1865C306.621 66.0568 304.511 66.492 302.226 66.492ZM302.226 58.6591C303.808 58.6591 305.215 58.2239 306.445 57.4406C307.676 56.5703 308.643 55.5259 309.434 54.1334C310.137 52.7409 310.489 51.2614 310.489 49.6948C310.489 48.0412 310.137 46.5616 309.346 45.1691C308.555 43.7766 307.588 42.7322 306.357 41.8619C305.127 41.0786 303.72 40.6434 302.226 40.6434C300.643 40.6434 299.325 41.0786 298.006 41.8619C296.775 42.7322 295.808 43.7766 295.017 45.1691C294.314 46.5616 293.962 48.0412 293.962 49.6948C293.962 51.3484 294.314 52.915 295.105 54.2204C295.896 55.613 296.863 56.6573 298.094 57.4406C299.413 58.311 300.819 58.6591 302.226 58.6591Z" fill="white"/>
<path d="M352.948 45.4302V65.6216H345.124V47.519C345.124 46.3005 344.773 45.0821 344.157 44.1247C343.542 43.0803 342.663 42.297 341.696 41.6878C340.641 41.0786 339.498 40.8175 338.267 40.8175C337.037 40.8175 335.806 41.0786 334.839 41.6878C333.784 42.297 332.993 43.0803 332.378 44.1247C331.762 45.1691 331.499 46.3005 331.499 47.519V65.6216H323.499V33.6809H331.323V36.5529C332.378 35.4215 333.696 34.4642 335.279 33.8549C336.773 33.1587 338.443 32.8105 340.201 32.8105C342.575 32.8105 344.685 33.4198 346.619 34.5512C348.553 35.6826 350.135 37.2492 351.278 39.0769C352.421 40.9916 352.948 43.1674 352.948 45.4302Z" fill="white"/>
<path d="M150.761 80.5918H159.815L176.254 125.239H167.903L165.002 117.319H145.662L142.761 125.239H134.41L150.761 80.5918ZM148.475 109.573H162.013L155.244 91.1227L148.475 109.573Z" fill="white"/>
<path d="M199.374 115.665L206.494 119.495C205 121.496 203.154 123.063 200.956 124.281C198.758 125.5 196.297 126.109 193.66 126.109C190.671 126.109 188.034 125.326 185.572 123.846C183.111 122.367 181.177 120.278 179.77 117.754C178.364 115.23 177.573 112.358 177.573 109.312C177.573 106.962 178.012 104.786 178.803 102.785C179.683 100.783 180.825 98.9551 182.232 97.3886C183.726 95.822 185.397 94.6035 187.33 93.7332C189.264 92.8629 191.374 92.4277 193.572 92.4277C196.209 92.4277 198.671 93.037 200.868 94.2554C203.066 95.4739 205 97.1275 206.406 99.1292L199.286 102.872C198.495 102.001 197.616 101.392 196.649 100.87C195.594 100.435 194.539 100.174 193.484 100.174C191.902 100.174 190.583 100.609 189.264 101.392C188.034 102.262 187.067 103.307 186.276 104.699C185.484 106.092 185.221 107.571 185.221 109.225C185.221 110.792 185.572 112.271 186.276 113.664C186.979 115.056 188.034 116.1 189.264 116.971C190.495 117.841 191.902 118.189 193.484 118.189C194.627 118.189 195.682 117.928 196.649 117.493C197.791 117.145 198.671 116.449 199.374 115.665Z" fill="white"/>
<path d="M235.592 93.3859H243.416V125.327H235.592L235.24 121.41C234.361 122.803 233.218 124.021 231.724 124.892C230.23 125.762 228.559 126.197 226.625 126.197C224.252 126.197 221.966 125.762 219.944 124.892C217.835 124.021 215.989 122.803 214.494 121.149C212.912 119.583 211.681 117.755 210.802 115.666C209.923 113.577 209.483 111.402 209.483 109.052C209.483 106.789 209.923 104.613 210.714 102.611C211.593 100.61 212.736 98.869 214.318 97.3894C215.813 95.9099 217.571 94.6914 219.593 93.8211C221.615 92.9508 223.724 92.5156 226.01 92.5156C228.12 92.5156 230.054 92.9508 231.724 93.9081C233.394 94.8655 234.801 95.9969 236.031 97.4765L235.592 93.3859ZM226.362 118.625C228.032 118.625 229.526 118.19 230.845 117.407C232.164 116.536 233.13 115.492 233.834 114.013C234.537 112.62 234.889 111.053 234.889 109.313C234.889 107.572 234.537 106.006 233.834 104.613C233.13 103.221 232.076 102.089 230.757 101.219C229.438 100.349 227.944 100 226.362 100C224.691 100 223.197 100.436 221.79 101.219C220.384 102.089 219.329 103.221 218.538 104.613C217.747 106.006 217.307 107.572 217.307 109.313C217.307 111.053 217.747 112.62 218.538 114.013C219.329 115.405 220.472 116.536 221.79 117.32C223.285 118.19 224.779 118.625 226.362 118.625Z" fill="white"/>
<path d="M273.568 77.3721H281.391V125.24H273.568V121.236C272.513 122.629 271.194 123.847 269.7 124.718C268.117 125.588 266.359 126.023 264.249 126.023C261.876 126.023 259.678 125.588 257.656 124.718C255.634 123.847 253.788 122.629 252.294 121.062C250.712 119.496 249.481 117.755 248.602 115.753C247.723 113.751 247.283 111.576 247.283 109.226C247.283 106.876 247.723 104.7 248.602 102.698C249.481 100.697 250.712 98.869 252.294 97.3895C253.876 95.8229 255.634 94.6044 257.656 93.7341C259.678 92.8638 261.876 92.4286 264.249 92.4286C266.271 92.4286 268.117 92.8638 269.7 93.7341C271.282 94.6044 272.601 95.8229 273.568 97.2154V77.3721ZM264.337 118.625C266.007 118.625 267.502 118.19 268.821 117.407C270.139 116.537 271.106 115.492 271.809 114.013C272.513 112.62 272.864 111.053 272.864 109.313C272.864 107.572 272.513 106.006 271.809 104.613C271.106 103.221 270.051 102.089 268.733 101.219C267.414 100.349 265.92 100 264.337 100C262.667 100 261.173 100.436 259.766 101.219C258.36 102.089 257.305 103.221 256.513 104.613C255.722 106.006 255.283 107.572 255.283 109.313C255.283 111.053 255.722 112.62 256.513 114.013C257.305 115.405 258.447 116.537 259.766 117.32C261.173 118.19 262.755 118.625 264.337 118.625Z" fill="white"/>
<path d="M302.841 126.109C299.852 126.109 297.215 125.326 294.753 123.846C292.292 122.367 290.358 120.278 288.952 117.754C287.545 115.23 286.754 112.358 286.754 109.312C286.754 106.962 287.193 104.786 287.985 102.785C288.864 100.783 290.006 98.9551 291.413 97.3886C292.907 95.822 294.578 94.6035 296.512 93.7332C298.446 92.8629 300.555 92.4277 302.753 92.4277C305.302 92.4277 307.588 92.9499 309.698 93.9943C311.807 95.0387 313.566 96.5182 315.06 98.3459C316.554 100.174 317.609 102.262 318.225 104.612C318.928 106.962 319.016 109.399 318.664 111.923H295.105C295.369 113.141 295.896 114.186 296.6 115.143C297.303 116.1 298.182 116.884 299.237 117.406C300.292 117.928 301.522 118.276 302.841 118.276C304.247 118.276 305.478 118.015 306.621 117.319C307.764 116.623 308.731 115.752 309.434 114.621L317.434 116.449C316.115 119.321 314.181 121.583 311.544 123.411C308.994 125.239 306.094 126.109 302.841 126.109ZM294.929 106.092H310.753C310.489 104.786 310.049 103.655 309.258 102.61C308.467 101.566 307.588 100.783 306.445 100.174C305.302 99.5644 304.16 99.2162 302.841 99.2162C301.522 99.2162 300.38 99.4773 299.237 100.087C298.094 100.696 297.215 101.479 296.424 102.523C295.72 103.655 295.193 104.786 294.929 106.092Z" fill="white"/>
<path d="M324.027 125.239V93.2981H331.851V96.1701C332.905 95.0387 334.224 94.0813 335.806 93.4721C337.301 92.7759 338.971 92.4277 340.729 92.4277C342.927 92.4277 345.037 92.9499 346.883 93.9943C348.729 95.0387 350.223 96.4312 351.366 98.1719C352.509 96.4312 354.003 95.0387 355.849 93.9943C357.695 92.9499 359.805 92.4277 362.003 92.4277C364.376 92.4277 366.486 93.037 368.42 94.1684C370.354 95.2998 371.848 96.8664 372.991 98.694C374.134 100.609 374.749 102.698 374.749 105.047V125.239H366.926V107.136C366.926 105.918 366.662 104.786 366.047 103.742C365.431 102.698 364.64 101.914 363.585 101.218C362.53 100.609 361.387 100.261 360.157 100.261C358.926 100.261 357.783 100.522 356.728 101.131C355.673 101.74 354.882 102.523 354.267 103.568C353.652 104.612 353.3 105.744 353.3 107.049V125.152H345.476V107.136C345.476 105.831 345.213 104.699 344.597 103.655C343.982 102.61 343.191 101.827 342.136 101.218C341.081 100.609 339.938 100.348 338.707 100.348C337.477 100.348 336.334 100.696 335.279 101.305C334.224 101.914 333.433 102.785 332.818 103.829C332.202 104.873 331.939 106.005 331.939 107.223V125.326H324.027V125.239Z" fill="white"/>
<path d="M401.649 93.3857H410L392.331 141.253H383.98L389.781 125.327L378.178 93.3857H386.793L393.737 114.622L401.649 93.3857Z" fill="white"/>
</svg>
