<svg width="157" height="55" viewBox="0 0 157 55" fill="none" xmlns="http://www.w3.org/2000/svg">
<path d="M44.7369 13.5192C44.3666 13.8858 44.0637 14.3857 43.6597 14.6523C40.7648 16.3853 37.8362 18.1183 34.9076 19.818C31.7097 21.7177 28.4781 23.584 25.2466 25.4503C24.6406 25.8169 23.9337 26.0502 23.2605 26.2501C22.318 26.5167 21.4091 26.2168 20.6012 25.8169C18.8844 24.8837 17.1677 23.9506 15.4846 22.9841C11.4788 20.7178 7.50665 18.4516 3.53452 16.1854C3.39987 16.1187 3.26522 16.0521 3.06325 15.9188C3.06325 16.1521 3.06325 16.3187 3.06325 16.452C3.06325 20.6179 3.06325 24.8171 3.06325 28.9829C3.06325 30.0161 2.42367 30.7159 1.48113 30.6826C0.740566 30.6493 0.134648 30.0827 0.0673242 29.3828C0.0336621 29.1829 0.0336621 28.9496 0.0336621 28.7496C0.0336621 24.0505 0.0673242 19.3848 0 14.6857C0 13.5192 0.471269 12.6861 1.34648 12.0528C1.98606 11.6196 2.6593 11.2197 3.33255 10.8198C8.44918 7.92031 13.5322 4.98754 18.6488 2.0881C19.7933 1.45489 20.9042 0.75502 22.217 0.455078H22.8902C24.0011 0.688367 24.9436 1.25492 25.8861 1.78815C28.0069 3.02125 30.1612 4.25435 32.2819 5.48744C35.9511 7.62037 39.6203 9.75329 43.2894 11.8862C43.8617 12.2195 44.4003 12.6194 44.7033 13.2193V13.5192H44.7369ZM22.5536 23.0507C23.2942 23.0507 23.9337 22.7508 24.5397 22.3842C28.6801 20.018 32.8205 17.6184 36.9273 15.2189C37.6342 14.819 38.2738 14.2858 38.8797 13.7858C39.25 13.4859 39.25 13.186 38.8797 12.8527C38.6441 12.6527 38.3748 12.4861 38.1391 12.3195C33.5274 9.65331 28.8821 6.98715 24.2704 4.28767C23.1259 3.62114 22.0487 3.58781 20.9042 4.25435C17.7063 6.08733 14.542 7.88698 11.3441 9.68664C9.69468 10.6198 8.04524 11.5529 6.42946 12.5194C5.4196 13.1193 5.4196 13.5859 6.3958 14.2191C7.47298 14.919 8.58383 15.5855 9.69468 16.2187C13.2292 18.2517 16.7637 20.2513 20.3319 22.2509C21.0051 22.6841 21.7457 23.0507 22.5536 23.0507Z" fill="#008080"/>
<path d="M9.08898 48.6791H6.05939V48.1459C6.05939 41.2139 6.05939 34.2819 6.05939 27.3499C6.05939 26.4834 6.02573 25.6169 6.05939 24.7504C6.12672 23.8505 6.79996 23.284 7.60785 23.384C7.91081 23.4173 8.24743 23.5506 8.51673 23.7172C11.7819 25.5835 15.0472 27.4165 18.3124 29.2828C21.7459 31.2491 25.1795 33.2154 28.613 35.1484C28.714 35.215 28.8486 35.2817 29.0169 35.3483C29.0169 34.6485 29.0169 34.0152 29.0169 33.382C29.0169 32.2156 29.0169 31.0158 29.0169 29.8494C29.0169 28.7496 29.4545 27.9497 30.4644 27.3832C32.5851 26.2167 34.7058 24.9836 36.7929 23.7839C37.3315 23.4839 37.8701 23.3506 38.4423 23.6506C38.9473 23.8839 39.1829 24.3171 39.2502 24.8503C39.2839 24.9836 39.2502 25.117 39.2502 25.2836C39.2502 32.9155 39.2502 40.5806 39.2502 48.2125C39.2502 48.3458 39.2502 48.4791 39.2502 48.6791H36.2206V27.6165C36.0523 27.7165 35.9513 27.7498 35.8167 27.8164C34.7732 28.4163 33.7296 29.0495 32.6861 29.5494C32.1138 29.816 31.9792 30.1826 31.9792 30.7492C32.0129 36.5148 31.9792 42.3136 31.9792 48.0792V48.6791C31.306 48.6791 30.6664 48.6458 30.0268 48.6791C29.3199 48.7124 28.7476 48.5458 28.1417 48.1792C24.3379 45.9463 20.5004 43.78 16.6966 41.5805C16.562 41.5138 16.4273 41.4471 16.2253 41.3472V48.6458H13.1958C13.1958 48.5125 13.1621 48.4125 13.1621 48.2792C13.1621 42.247 13.1621 36.2481 13.1621 30.216C13.1621 30.0827 13.0611 29.8494 12.9601 29.7827C11.7146 29.0495 10.4355 28.3163 9.18997 27.6165C9.15631 27.5831 9.08898 27.5831 8.988 27.5498L9.08898 48.6791ZM16.3263 31.649V32.1823C16.3263 33.9486 16.3263 35.6816 16.3263 37.4479C16.3263 37.7812 16.4273 37.9478 16.6966 38.1145C20.6687 40.3807 24.6409 42.6136 28.613 44.8798C28.714 44.9465 28.8486 45.0131 29.0169 45.0798V44.6132C29.0169 42.8469 29.0169 41.0472 29.0169 39.2809C29.0169 38.981 28.916 38.8143 28.6467 38.6477C24.6745 36.4148 20.7361 34.1485 16.7639 31.8823C16.663 31.849 16.5283 31.7823 16.3263 31.649Z" fill="#008080"/>
<path d="M51.4355 25.5835V8.48682H54.7008L62.0054 20.2179V8.48682H65.0014V25.5835H61.7698L54.4651 13.8525V25.5835H51.4355Z" fill="#313131"/>
<path d="M73.2149 25.9166C72.0703 25.9166 71.0605 25.6166 70.1179 25.0501C69.1754 24.4835 68.4348 23.6837 67.8962 22.7172C67.3576 21.7507 67.0547 20.6509 67.0547 19.4845C67.0547 18.5846 67.223 17.7515 67.526 16.9849C67.8626 16.2184 68.3002 15.5186 68.8388 14.9187C69.411 14.3188 70.0506 13.8522 70.7912 13.5189C71.5317 13.1857 72.3396 13.019 73.1812 13.019C74.1574 13.019 75.0326 13.219 75.8405 13.6189C76.6484 14.0189 77.3216 14.5854 77.8939 15.2853C78.4661 15.9851 78.8701 16.785 79.1057 17.6848C79.375 18.5846 79.4087 19.5178 79.274 20.4843H70.2526C70.3536 20.9509 70.5555 21.3508 70.8248 21.7174C71.0941 22.084 71.4308 22.3839 71.8347 22.5839C72.2386 22.7838 72.7099 22.9171 73.2149 22.9171C73.7534 22.9171 74.2247 22.8172 74.6623 22.5505C75.0999 22.2839 75.4702 21.9507 75.7395 21.5174L78.8028 22.2173C78.2978 23.3171 77.5573 24.1836 76.5474 24.8834C75.5712 25.55 74.4603 25.9166 73.2149 25.9166ZM70.1853 18.2514H76.2444C76.1435 17.7515 75.9751 17.3182 75.6722 16.9183C75.3692 16.5184 75.0326 16.2184 74.595 15.9851C74.1574 15.7519 73.7198 15.6185 73.2149 15.6185C72.7099 15.6185 72.2723 15.7185 71.8347 15.9518C71.4308 16.1851 71.0605 16.485 70.7575 16.885C70.4882 17.3182 70.2862 17.7515 70.1853 18.2514Z" fill="#313131"/>
<path d="M87.0837 25.5835H84.0877L79.981 13.3525H82.9432L85.6362 21.251L88.2955 13.3525H91.2578L93.9171 21.251L96.61 13.3525H99.5723L95.4655 25.5835H92.4696L89.7766 17.6517L87.0837 25.5835Z" fill="#313131"/>
<path d="M108.358 16.352H105.968V25.5836H102.972V16.352H101.154V13.3859H102.972V9.52002H105.968V13.3526H108.358V16.352Z" fill="#313131"/>
<path d="M115.73 25.9166C114.586 25.9166 113.576 25.6166 112.634 25.0501C111.691 24.4835 110.95 23.6837 110.412 22.7172C109.873 21.7507 109.57 20.6509 109.57 19.4845C109.57 18.5846 109.739 17.7515 110.042 16.9849C110.378 16.2184 110.816 15.5186 111.354 14.9187C111.927 14.3188 112.566 13.8522 113.307 13.5189C114.047 13.1857 114.855 13.019 115.697 13.019C116.841 13.019 117.851 13.319 118.794 13.8855C119.736 14.4521 120.477 15.2519 121.015 16.2184C121.554 17.1849 121.857 18.2847 121.857 19.4845C121.857 20.3843 121.689 21.2175 121.386 21.984C121.083 22.7505 120.611 23.4504 120.073 24.0169C119.501 24.6168 118.861 25.0834 118.12 25.4167C117.414 25.7499 116.606 25.9166 115.73 25.9166ZM115.73 22.9171C116.336 22.9171 116.875 22.7505 117.346 22.4506C117.818 22.1173 118.188 21.7174 118.491 21.1841C118.76 20.6509 118.895 20.0844 118.895 19.4845C118.895 18.8513 118.76 18.2847 118.457 17.7515C118.154 17.2182 117.784 16.8183 117.313 16.485C116.841 16.1851 116.303 16.0185 115.73 16.0185C115.125 16.0185 114.62 16.1851 114.115 16.485C113.643 16.8183 113.273 17.2182 112.97 17.7515C112.701 18.2847 112.566 18.8513 112.566 19.4845C112.566 20.1177 112.701 20.7176 113.004 21.2175C113.307 21.7507 113.677 22.1506 114.148 22.4506C114.653 22.7838 115.192 22.9171 115.73 22.9171Z" fill="#313131"/>
<path d="M135.153 17.8514V25.5833H132.157V18.6513C132.157 18.1847 132.023 17.7181 131.787 17.3515C131.551 16.9516 131.215 16.6517 130.845 16.4184C130.441 16.1851 130.003 16.0851 129.532 16.0851C129.06 16.0851 128.589 16.1851 128.219 16.4184C127.815 16.6517 127.512 16.9516 127.276 17.3515C127.041 17.7515 126.94 18.1847 126.94 18.6513V25.5833H123.876V13.3523H126.872V14.4521C127.276 14.0189 127.781 13.6523 128.387 13.419C128.959 13.1524 129.599 13.019 130.272 13.019C131.181 13.019 131.989 13.2523 132.73 13.6856C133.47 14.1188 134.076 14.7187 134.514 15.4186C134.951 16.1518 135.153 16.9849 135.153 17.8514Z" fill="#313131"/>
<path d="M57.7304 31.3159H61.1976L67.4924 48.4126H64.2945L63.1836 45.3799H55.778L54.6671 48.4126H51.4692L57.7304 31.3159ZM56.8552 42.4138H62.0391L59.4472 35.3485L56.8552 42.4138Z" fill="#313131"/>
<path d="M76.3458 44.7464L79.0724 46.2128C78.5001 46.9793 77.7932 47.5792 76.9517 48.0458C76.1101 48.5124 75.1676 48.7457 74.1577 48.7457C73.0132 48.7457 72.0033 48.4457 71.0608 47.8792C70.1183 47.3126 69.3777 46.5128 68.8391 45.5463C68.3005 44.5798 67.9976 43.48 67.9976 42.3136C67.9976 41.4137 68.1659 40.5806 68.4688 39.814C68.8054 39.0475 69.2431 38.3477 69.7817 37.7478C70.3539 37.1479 70.9935 36.6813 71.7341 36.348C72.4746 36.0148 73.2825 35.8481 74.1241 35.8481C75.1339 35.8481 76.0765 36.0814 76.918 36.548C77.7596 37.0146 78.5001 37.6478 79.0387 38.4143L76.3121 39.8474C76.0091 39.5141 75.6725 39.2808 75.3022 39.0809C74.8983 38.9142 74.4943 38.8142 74.0904 38.8142C73.4845 38.8142 72.9795 38.9809 72.4746 39.2808C72.0033 39.6141 71.6331 40.014 71.3301 40.5472C71.0271 41.0805 70.9262 41.647 70.9262 42.2802C70.9262 42.8801 71.0608 43.4467 71.3301 43.9799C71.5994 44.5131 72.0033 44.9131 72.4746 45.2463C72.9459 45.5796 73.4845 45.7129 74.0904 45.7129C74.528 45.7129 74.9319 45.6129 75.3022 45.4463C75.7398 45.313 76.0765 45.0464 76.3458 44.7464Z" fill="#313131"/>
<path d="M90.2144 36.2151H93.2104V48.4461H90.2144L90.0798 46.9464C89.7432 47.4796 89.3056 47.9462 88.7333 48.2795C88.1611 48.6127 87.5215 48.7794 86.7809 48.7794C85.872 48.7794 84.9968 48.6127 84.2226 48.2795C83.4147 47.9462 82.7078 47.4796 82.1355 46.8464C81.5296 46.2465 81.0583 45.5466 80.7217 44.7468C80.3851 43.947 80.2168 43.1138 80.2168 42.214C80.2168 41.3475 80.3851 40.5143 80.6881 39.7478C81.0247 38.9812 81.4623 38.3147 82.0682 37.7481C82.6405 37.1816 83.3137 36.715 84.0879 36.3817C84.8622 36.0485 85.6701 35.8818 86.5453 35.8818C87.3532 35.8818 88.0937 36.0485 88.7333 36.4151C89.3729 36.7817 89.9115 37.2149 90.3827 37.7815L90.2144 36.2151ZM86.6799 45.8799C87.3195 45.8799 87.8918 45.7133 88.3967 45.4133C88.9016 45.0801 89.2719 44.6801 89.5412 44.1136C89.8105 43.5804 89.9451 42.9805 89.9451 42.3139C89.9451 41.6474 89.8105 41.0475 89.5412 40.5143C89.2719 39.981 88.868 39.5478 88.363 39.2145C87.8581 38.8813 87.2858 38.748 86.6799 38.748C86.0403 38.748 85.4681 38.9146 84.9295 39.2145C84.3909 39.5478 83.987 39.981 83.684 40.5143C83.381 41.0475 83.2127 41.6474 83.2127 42.3139C83.2127 42.9805 83.381 43.5804 83.684 44.1136C83.987 44.6468 84.4246 45.0801 84.9295 45.38C85.5017 45.7133 86.074 45.8799 86.6799 45.8799Z" fill="#313131"/>
<path d="M104.756 30.083H107.752V48.4128H104.756V46.8798C104.352 47.413 103.847 47.8796 103.275 48.2129C102.669 48.5461 101.996 48.7128 101.188 48.7128C100.279 48.7128 99.4378 48.5461 98.6635 48.2129C97.8893 47.8796 97.1824 47.413 96.6101 46.8131C96.0042 46.2132 95.533 45.5467 95.1963 44.7802C94.8597 44.0137 94.6914 43.1805 94.6914 42.2807C94.6914 41.3808 94.8597 40.5477 95.1963 39.7811C95.533 39.0146 96.0042 38.3148 96.6101 37.7482C97.2161 37.1483 97.8893 36.6817 98.6635 36.3485C99.4378 36.0152 100.279 35.8486 101.188 35.8486C101.962 35.8486 102.669 36.0152 103.275 36.3485C103.881 36.6817 104.386 37.1483 104.756 37.6815V30.083ZM101.222 45.88C101.861 45.88 102.434 45.7133 102.939 45.4134C103.444 45.0801 103.814 44.6802 104.083 44.1136C104.352 43.5804 104.487 42.9805 104.487 42.314C104.487 41.6474 104.352 41.0476 104.083 40.5143C103.814 39.9811 103.41 39.5479 102.905 39.2146C102.4 38.8813 101.828 38.748 101.222 38.748C100.582 38.748 100.01 38.9146 99.4714 39.2146C98.9328 39.5479 98.5289 39.9811 98.2259 40.5143C97.923 41.0476 97.7547 41.6474 97.7547 42.314C97.7547 42.9805 97.923 43.5804 98.2259 44.1136C98.5289 44.6469 98.9665 45.0801 99.4714 45.3801C100.01 45.7133 100.616 45.88 101.222 45.88Z" fill="#313131"/>
<path d="M115.966 48.7457C114.821 48.7457 113.811 48.4457 112.869 47.8792C111.926 47.3126 111.186 46.5128 110.647 45.5463C110.109 44.5798 109.806 43.48 109.806 42.3136C109.806 41.4137 109.974 40.5806 110.277 39.814C110.614 39.0475 111.051 38.3477 111.59 37.7478C112.162 37.1479 112.802 36.6813 113.542 36.348C114.283 36.0148 115.091 35.8481 115.932 35.8481C116.908 35.8481 117.784 36.0481 118.591 36.448C119.399 36.848 120.073 37.4145 120.645 38.1144C121.217 38.8142 121.621 39.6141 121.857 40.5139C122.126 41.4137 122.16 42.3469 122.025 43.3134H113.004C113.105 43.78 113.307 44.1799 113.576 44.5465C113.845 44.9131 114.182 45.213 114.586 45.413C114.99 45.6129 115.461 45.7462 115.966 45.7462C116.504 45.7462 116.976 45.6463 117.413 45.3796C117.851 45.113 118.221 44.7798 118.49 44.3465L121.554 45.0464C121.049 46.1462 120.308 47.0127 119.298 47.7125C118.322 48.4124 117.211 48.7457 115.966 48.7457ZM112.936 41.0805H118.995C118.894 40.5806 118.726 40.1473 118.423 39.7474C118.12 39.3475 117.784 39.0475 117.346 38.8142C116.908 38.581 116.471 38.4476 115.966 38.4476C115.461 38.4476 115.023 38.5476 114.586 38.7809C114.148 39.0142 113.811 39.3141 113.508 39.7141C113.239 40.1473 113.037 40.5806 112.936 41.0805Z" fill="#313131"/>
<path d="M124.079 48.4124V36.1814H127.075V37.2812C127.478 36.848 127.983 36.4814 128.589 36.2481C129.162 35.9815 129.801 35.8481 130.474 35.8481C131.316 35.8481 132.124 36.0481 132.831 36.448C133.538 36.848 134.11 37.3812 134.548 38.0477C134.985 37.3812 135.557 36.848 136.264 36.448C136.971 36.0481 137.779 35.8481 138.621 35.8481C139.53 35.8481 140.337 36.0814 141.078 36.5147C141.819 36.9479 142.391 37.5478 142.828 38.2477C143.266 38.9809 143.502 39.7807 143.502 40.6805V48.4124H140.506V41.4804C140.506 41.0138 140.405 40.5806 140.169 40.1806C139.933 39.7807 139.63 39.4808 139.227 39.2142C138.823 38.9809 138.385 38.8476 137.914 38.8476C137.442 38.8476 137.005 38.9475 136.601 39.1808C136.197 39.4141 135.894 39.7141 135.658 40.114C135.423 40.5139 135.288 40.9472 135.288 41.4471V48.3791H132.292V41.4804C132.292 40.9805 132.191 40.5472 131.956 40.1473C131.72 39.7474 131.417 39.4475 131.013 39.2142C130.609 38.9809 130.171 38.8809 129.7 38.8809C129.229 38.8809 128.791 39.0142 128.387 39.2475C127.983 39.4808 127.68 39.814 127.445 40.214C127.209 40.6139 127.108 41.0471 127.108 41.5137V48.4457H124.079V48.4124Z" fill="#313131"/>
<path d="M153.802 36.2148H157L150.234 54.5447H147.036L149.258 48.4458L144.814 36.2148H148.113L150.773 44.3466L153.802 36.2148Z" fill="#313131"/>
</svg>
