<svg width="47" height="47" viewBox="0 0 47 47" fill="none" xmlns="http://www.w3.org/2000/svg">
<path d="M44.2676 28.5916C37.8984 31.1697 30.9363 32.5895 23.6426 32.5895C16.3489 32.5895 9.3868 31.1697 3.01758 28.5916M32.8092 11.9645V7.38119C32.8092 4.84988 30.7572 2.79785 28.2259 2.79785H19.0592C16.5279 2.79785 14.4759 4.84988 14.4759 7.38119V11.9645M23.6426 25.7145H23.6655M7.60091 44.0479H39.6842C42.2155 44.0479 44.2676 41.9958 44.2676 39.4645V16.5479C44.2676 14.0165 42.2155 11.9645 39.6842 11.9645H7.60091C5.06961 11.9645 3.01758 14.0165 3.01758 16.5479V39.4645C3.01758 41.9958 5.06961 44.0479 7.60091 44.0479Z" stroke="white" stroke-width="5" stroke-linecap="round" stroke-linejoin="round"/>
</svg>
