<svg width="302" height="331" viewBox="0 0 302 331" fill="none" xmlns="http://www.w3.org/2000/svg">
<g opacity="0.2">
<path d="M9.74194 4.86765C9.74194 7.55597 7.56113 9.73529 4.87097 9.73529C2.18081 9.73529 0 7.55597 0 4.86765C0 2.17932 2.18081 0 4.87097 0C7.56113 0 9.74194 2.17932 9.74194 4.86765Z" fill="#008080"/>
<path d="M38.9677 4.86765C38.9677 7.55597 36.7869 9.73529 34.0968 9.73529C31.4066 9.73529 29.2258 7.55597 29.2258 4.86765C29.2258 2.17932 31.4066 0 34.0968 0C36.7869 0 38.9677 2.17932 38.9677 4.86765Z" fill="#008080"/>
<path d="M68.1936 4.86765C68.1936 7.55597 66.0127 9.73529 63.3226 9.73529C60.6324 9.73529 58.4516 7.55597 58.4516 4.86765C58.4516 2.17932 60.6324 0 63.3226 0C66.0127 0 68.1936 2.17932 68.1936 4.86765Z" fill="#008080"/>
<path d="M97.4194 4.86765C97.4194 7.55597 95.2385 9.73529 92.5484 9.73529C89.8582 9.73529 87.6774 7.55597 87.6774 4.86765C87.6774 2.17932 89.8582 0 92.5484 0C95.2385 0 97.4194 2.17932 97.4194 4.86765Z" fill="#008080"/>
<path d="M126.645 4.86765C126.645 7.55597 124.464 9.73529 121.774 9.73529C119.084 9.73529 116.903 7.55597 116.903 4.86765C116.903 2.17932 119.084 0 121.774 0C124.464 0 126.645 2.17932 126.645 4.86765Z" fill="#008080"/>
<path d="M155.871 4.86765C155.871 7.55597 153.69 9.73529 151 9.73529C148.31 9.73529 146.129 7.55597 146.129 4.86765C146.129 2.17932 148.31 0 151 0C153.69 0 155.871 2.17932 155.871 4.86765Z" fill="#008080"/>
<path d="M185.097 4.86765C185.097 7.55597 182.916 9.73529 180.226 9.73529C177.536 9.73529 175.355 7.55597 175.355 4.86765C175.355 2.17932 177.536 0 180.226 0C182.916 0 185.097 2.17932 185.097 4.86765Z" fill="#008080"/>
<path d="M214.323 4.86765C214.323 7.55597 212.142 9.73529 209.452 9.73529C206.761 9.73529 204.581 7.55597 204.581 4.86765C204.581 2.17932 206.761 0 209.452 0C212.142 0 214.323 2.17932 214.323 4.86765Z" fill="#008080"/>
<path d="M243.548 4.86765C243.548 7.55597 241.368 9.73529 238.677 9.73529C235.987 9.73529 233.806 7.55597 233.806 4.86765C233.806 2.17932 235.987 0 238.677 0C241.368 0 243.548 2.17932 243.548 4.86765Z" fill="#008080"/>
<path d="M272.774 4.86765C272.774 7.55597 270.593 9.73529 267.903 9.73529C265.213 9.73529 263.032 7.55597 263.032 4.86765C263.032 2.17932 265.213 0 267.903 0C270.593 0 272.774 2.17932 272.774 4.86765Z" fill="#008080"/>
<path d="M302 4.86765C302 7.55597 299.819 9.73529 297.129 9.73529C294.439 9.73529 292.258 7.55597 292.258 4.86765C292.258 2.17932 294.439 0 297.129 0C299.819 0 302 2.17932 302 4.86765Z" fill="#008080"/>
<path d="M9.74194 34.0735C9.74194 36.7619 7.56113 38.9412 4.87097 38.9412C2.18081 38.9412 0 36.7619 0 34.0735C0 31.3852 2.18081 29.2059 4.87097 29.2059C7.56113 29.2059 9.74194 31.3852 9.74194 34.0735Z" fill="#008080"/>
<path d="M38.9677 34.0735C38.9677 36.7619 36.7869 38.9412 34.0968 38.9412C31.4066 38.9412 29.2258 36.7619 29.2258 34.0735C29.2258 31.3852 31.4066 29.2059 34.0968 29.2059C36.7869 29.2059 38.9677 31.3852 38.9677 34.0735Z" fill="#008080"/>
<path d="M68.1936 34.0735C68.1936 36.7619 66.0127 38.9412 63.3226 38.9412C60.6324 38.9412 58.4516 36.7619 58.4516 34.0735C58.4516 31.3852 60.6324 29.2059 63.3226 29.2059C66.0127 29.2059 68.1936 31.3852 68.1936 34.0735Z" fill="#008080"/>
<path d="M97.4194 34.0735C97.4194 36.7619 95.2385 38.9412 92.5484 38.9412C89.8582 38.9412 87.6774 36.7619 87.6774 34.0735C87.6774 31.3852 89.8582 29.2059 92.5484 29.2059C95.2385 29.2059 97.4194 31.3852 97.4194 34.0735Z" fill="#008080"/>
<path d="M126.645 34.0735C126.645 36.7619 124.464 38.9412 121.774 38.9412C119.084 38.9412 116.903 36.7619 116.903 34.0735C116.903 31.3852 119.084 29.2059 121.774 29.2059C124.464 29.2059 126.645 31.3852 126.645 34.0735Z" fill="#008080"/>
<path d="M155.871 34.0735C155.871 36.7619 153.69 38.9412 151 38.9412C148.31 38.9412 146.129 36.7619 146.129 34.0735C146.129 31.3852 148.31 29.2059 151 29.2059C153.69 29.2059 155.871 31.3852 155.871 34.0735Z" fill="#008080"/>
<path d="M185.097 34.0735C185.097 36.7619 182.916 38.9412 180.226 38.9412C177.536 38.9412 175.355 36.7619 175.355 34.0735C175.355 31.3852 177.536 29.2059 180.226 29.2059C182.916 29.2059 185.097 31.3852 185.097 34.0735Z" fill="#008080"/>
<path d="M214.323 34.0735C214.323 36.7619 212.142 38.9412 209.452 38.9412C206.761 38.9412 204.581 36.7619 204.581 34.0735C204.581 31.3852 206.761 29.2059 209.452 29.2059C212.142 29.2059 214.323 31.3852 214.323 34.0735Z" fill="#008080"/>
<path d="M243.548 34.0735C243.548 36.7619 241.368 38.9412 238.677 38.9412C235.987 38.9412 233.806 36.7619 233.806 34.0735C233.806 31.3852 235.987 29.2059 238.677 29.2059C241.368 29.2059 243.548 31.3852 243.548 34.0735Z" fill="#008080"/>
<path d="M272.774 34.0735C272.774 36.7619 270.593 38.9412 267.903 38.9412C265.213 38.9412 263.032 36.7619 263.032 34.0735C263.032 31.3852 265.213 29.2059 267.903 29.2059C270.593 29.2059 272.774 31.3852 272.774 34.0735Z" fill="#008080"/>
<path d="M302 34.0735C302 36.7619 299.819 38.9412 297.129 38.9412C294.439 38.9412 292.258 36.7619 292.258 34.0735C292.258 31.3852 294.439 29.2059 297.129 29.2059C299.819 29.2059 302 31.3852 302 34.0735Z" fill="#008080"/>
<path d="M9.74194 63.2794C9.74194 65.9677 7.56113 68.1471 4.87097 68.1471C2.18081 68.1471 0 65.9677 0 63.2794C0 60.5911 2.18081 58.4118 4.87097 58.4118C7.56113 58.4118 9.74194 60.5911 9.74194 63.2794Z" fill="#008080"/>
<path d="M38.9677 63.2794C38.9677 65.9677 36.7869 68.1471 34.0968 68.1471C31.4066 68.1471 29.2258 65.9677 29.2258 63.2794C29.2258 60.5911 31.4066 58.4118 34.0968 58.4118C36.7869 58.4118 38.9677 60.5911 38.9677 63.2794Z" fill="#008080"/>
<path d="M68.1936 63.2794C68.1936 65.9677 66.0127 68.1471 63.3226 68.1471C60.6324 68.1471 58.4516 65.9677 58.4516 63.2794C58.4516 60.5911 60.6324 58.4118 63.3226 58.4118C66.0127 58.4118 68.1936 60.5911 68.1936 63.2794Z" fill="#008080"/>
<path d="M97.4194 63.2794C97.4194 65.9677 95.2385 68.1471 92.5484 68.1471C89.8582 68.1471 87.6774 65.9677 87.6774 63.2794C87.6774 60.5911 89.8582 58.4118 92.5484 58.4118C95.2385 58.4118 97.4194 60.5911 97.4194 63.2794Z" fill="#008080"/>
<path d="M126.645 63.2794C126.645 65.9677 124.464 68.1471 121.774 68.1471C119.084 68.1471 116.903 65.9677 116.903 63.2794C116.903 60.5911 119.084 58.4118 121.774 58.4118C124.464 58.4118 126.645 60.5911 126.645 63.2794Z" fill="#008080"/>
<path d="M155.871 63.2794C155.871 65.9677 153.69 68.1471 151 68.1471C148.31 68.1471 146.129 65.9677 146.129 63.2794C146.129 60.5911 148.31 58.4118 151 58.4118C153.69 58.4118 155.871 60.5911 155.871 63.2794Z" fill="#008080"/>
<path d="M185.097 63.2794C185.097 65.9677 182.916 68.1471 180.226 68.1471C177.536 68.1471 175.355 65.9677 175.355 63.2794C175.355 60.5911 177.536 58.4118 180.226 58.4118C182.916 58.4118 185.097 60.5911 185.097 63.2794Z" fill="#008080"/>
<path d="M214.323 63.2794C214.323 65.9677 212.142 68.1471 209.452 68.1471C206.761 68.1471 204.581 65.9677 204.581 63.2794C204.581 60.5911 206.761 58.4118 209.452 58.4118C212.142 58.4118 214.323 60.5911 214.323 63.2794Z" fill="#008080"/>
<path d="M243.548 63.2794C243.548 65.9677 241.368 68.1471 238.677 68.1471C235.987 68.1471 233.806 65.9677 233.806 63.2794C233.806 60.5911 235.987 58.4118 238.677 58.4118C241.368 58.4118 243.548 60.5911 243.548 63.2794Z" fill="#008080"/>
<path d="M272.774 63.2794C272.774 65.9677 270.593 68.1471 267.903 68.1471C265.213 68.1471 263.032 65.9677 263.032 63.2794C263.032 60.5911 265.213 58.4118 267.903 58.4118C270.593 58.4118 272.774 60.5911 272.774 63.2794Z" fill="#008080"/>
<path d="M302 63.2794C302 65.9677 299.819 68.1471 297.129 68.1471C294.439 68.1471 292.258 65.9677 292.258 63.2794C292.258 60.5911 294.439 58.4118 297.129 58.4118C299.819 58.4118 302 60.5911 302 63.2794Z" fill="#008080"/>
<path d="M9.74194 92.4853C9.74194 95.1736 7.56113 97.3529 4.87097 97.3529C2.18081 97.3529 0 95.1736 0 92.4853C0 89.797 2.18081 87.6176 4.87097 87.6176C7.56113 87.6176 9.74194 89.797 9.74194 92.4853Z" fill="#008080"/>
<path d="M38.9677 92.4853C38.9677 95.1736 36.7869 97.3529 34.0968 97.3529C31.4066 97.3529 29.2258 95.1736 29.2258 92.4853C29.2258 89.797 31.4066 87.6176 34.0968 87.6176C36.7869 87.6176 38.9677 89.797 38.9677 92.4853Z" fill="#008080"/>
<path d="M68.1936 92.4853C68.1936 95.1736 66.0127 97.3529 63.3226 97.3529C60.6324 97.3529 58.4516 95.1736 58.4516 92.4853C58.4516 89.797 60.6324 87.6176 63.3226 87.6176C66.0127 87.6176 68.1936 89.797 68.1936 92.4853Z" fill="#008080"/>
<path d="M97.4194 92.4853C97.4194 95.1736 95.2385 97.3529 92.5484 97.3529C89.8582 97.3529 87.6774 95.1736 87.6774 92.4853C87.6774 89.797 89.8582 87.6176 92.5484 87.6176C95.2385 87.6176 97.4194 89.797 97.4194 92.4853Z" fill="#008080"/>
<path d="M126.645 92.4853C126.645 95.1736 124.464 97.3529 121.774 97.3529C119.084 97.3529 116.903 95.1736 116.903 92.4853C116.903 89.797 119.084 87.6176 121.774 87.6176C124.464 87.6176 126.645 89.797 126.645 92.4853Z" fill="#008080"/>
<path d="M155.871 92.4853C155.871 95.1736 153.69 97.3529 151 97.3529C148.31 97.3529 146.129 95.1736 146.129 92.4853C146.129 89.797 148.31 87.6176 151 87.6176C153.69 87.6176 155.871 89.797 155.871 92.4853Z" fill="#008080"/>
<path d="M185.097 92.4853C185.097 95.1736 182.916 97.3529 180.226 97.3529C177.536 97.3529 175.355 95.1736 175.355 92.4853C175.355 89.797 177.536 87.6176 180.226 87.6176C182.916 87.6176 185.097 89.797 185.097 92.4853Z" fill="#008080"/>
<path d="M214.323 92.4853C214.323 95.1736 212.142 97.3529 209.452 97.3529C206.761 97.3529 204.581 95.1736 204.581 92.4853C204.581 89.797 206.761 87.6176 209.452 87.6176C212.142 87.6176 214.323 89.797 214.323 92.4853Z" fill="#008080"/>
<path d="M243.548 92.4853C243.548 95.1736 241.368 97.3529 238.677 97.3529C235.987 97.3529 233.806 95.1736 233.806 92.4853C233.806 89.797 235.987 87.6176 238.677 87.6176C241.368 87.6176 243.548 89.797 243.548 92.4853Z" fill="#008080"/>
<path d="M272.774 92.4853C272.774 95.1736 270.593 97.3529 267.903 97.3529C265.213 97.3529 263.032 95.1736 263.032 92.4853C263.032 89.797 265.213 87.6176 267.903 87.6176C270.593 87.6176 272.774 89.797 272.774 92.4853Z" fill="#008080"/>
<path d="M302 92.4853C302 95.1736 299.819 97.3529 297.129 97.3529C294.439 97.3529 292.258 95.1736 292.258 92.4853C292.258 89.797 294.439 87.6176 297.129 87.6176C299.819 87.6176 302 89.797 302 92.4853Z" fill="#008080"/>
<path d="M9.74194 121.691C9.74194 124.38 7.56113 126.559 4.87097 126.559C2.18081 126.559 0 124.38 0 121.691C0 119.003 2.18081 116.824 4.87097 116.824C7.56113 116.824 9.74194 119.003 9.74194 121.691Z" fill="#008080"/>
<path d="M38.9677 121.691C38.9677 124.38 36.7869 126.559 34.0968 126.559C31.4066 126.559 29.2258 124.38 29.2258 121.691C29.2258 119.003 31.4066 116.824 34.0968 116.824C36.7869 116.824 38.9677 119.003 38.9677 121.691Z" fill="#008080"/>
<path d="M68.1936 121.691C68.1936 124.38 66.0127 126.559 63.3226 126.559C60.6324 126.559 58.4516 124.38 58.4516 121.691C58.4516 119.003 60.6324 116.824 63.3226 116.824C66.0127 116.824 68.1936 119.003 68.1936 121.691Z" fill="#008080"/>
<path d="M97.4194 121.691C97.4194 124.38 95.2385 126.559 92.5484 126.559C89.8582 126.559 87.6774 124.38 87.6774 121.691C87.6774 119.003 89.8582 116.824 92.5484 116.824C95.2385 116.824 97.4194 119.003 97.4194 121.691Z" fill="#008080"/>
<path d="M126.645 121.691C126.645 124.38 124.464 126.559 121.774 126.559C119.084 126.559 116.903 124.38 116.903 121.691C116.903 119.003 119.084 116.824 121.774 116.824C124.464 116.824 126.645 119.003 126.645 121.691Z" fill="#008080"/>
<path d="M155.871 121.691C155.871 124.38 153.69 126.559 151 126.559C148.31 126.559 146.129 124.38 146.129 121.691C146.129 119.003 148.31 116.824 151 116.824C153.69 116.824 155.871 119.003 155.871 121.691Z" fill="#008080"/>
<path d="M185.097 121.691C185.097 124.38 182.916 126.559 180.226 126.559C177.536 126.559 175.355 124.38 175.355 121.691C175.355 119.003 177.536 116.824 180.226 116.824C182.916 116.824 185.097 119.003 185.097 121.691Z" fill="#008080"/>
<path d="M214.323 121.691C214.323 124.38 212.142 126.559 209.452 126.559C206.761 126.559 204.581 124.38 204.581 121.691C204.581 119.003 206.761 116.824 209.452 116.824C212.142 116.824 214.323 119.003 214.323 121.691Z" fill="#008080"/>
<path d="M243.548 121.691C243.548 124.38 241.368 126.559 238.677 126.559C235.987 126.559 233.806 124.38 233.806 121.691C233.806 119.003 235.987 116.824 238.677 116.824C241.368 116.824 243.548 119.003 243.548 121.691Z" fill="#008080"/>
<path d="M272.774 121.691C272.774 124.38 270.593 126.559 267.903 126.559C265.213 126.559 263.032 124.38 263.032 121.691C263.032 119.003 265.213 116.824 267.903 116.824C270.593 116.824 272.774 119.003 272.774 121.691Z" fill="#008080"/>
<path d="M302 121.691C302 124.38 299.819 126.559 297.129 126.559C294.439 126.559 292.258 124.38 292.258 121.691C292.258 119.003 294.439 116.824 297.129 116.824C299.819 116.824 302 119.003 302 121.691Z" fill="#008080"/>
<path d="M9.74194 150.897C9.74194 153.585 7.56113 155.765 4.87097 155.765C2.18081 155.765 0 153.585 0 150.897C0 148.209 2.18081 146.029 4.87097 146.029C7.56113 146.029 9.74194 148.209 9.74194 150.897Z" fill="#008080"/>
<path d="M38.9677 150.897C38.9677 153.585 36.7869 155.765 34.0968 155.765C31.4066 155.765 29.2258 153.585 29.2258 150.897C29.2258 148.209 31.4066 146.029 34.0968 146.029C36.7869 146.029 38.9677 148.209 38.9677 150.897Z" fill="#008080"/>
<path d="M68.1936 150.897C68.1936 153.585 66.0127 155.765 63.3226 155.765C60.6324 155.765 58.4516 153.585 58.4516 150.897C58.4516 148.209 60.6324 146.029 63.3226 146.029C66.0127 146.029 68.1936 148.209 68.1936 150.897Z" fill="#008080"/>
<path d="M97.4194 150.897C97.4194 153.585 95.2385 155.765 92.5484 155.765C89.8582 155.765 87.6774 153.585 87.6774 150.897C87.6774 148.209 89.8582 146.029 92.5484 146.029C95.2385 146.029 97.4194 148.209 97.4194 150.897Z" fill="#008080"/>
<path d="M126.645 150.897C126.645 153.585 124.464 155.765 121.774 155.765C119.084 155.765 116.903 153.585 116.903 150.897C116.903 148.209 119.084 146.029 121.774 146.029C124.464 146.029 126.645 148.209 126.645 150.897Z" fill="#008080"/>
<path d="M155.871 150.897C155.871 153.585 153.69 155.765 151 155.765C148.31 155.765 146.129 153.585 146.129 150.897C146.129 148.209 148.31 146.029 151 146.029C153.69 146.029 155.871 148.209 155.871 150.897Z" fill="#008080"/>
<path d="M185.097 150.897C185.097 153.585 182.916 155.765 180.226 155.765C177.536 155.765 175.355 153.585 175.355 150.897C175.355 148.209 177.536 146.029 180.226 146.029C182.916 146.029 185.097 148.209 185.097 150.897Z" fill="#008080"/>
<path d="M214.323 150.897C214.323 153.585 212.142 155.765 209.452 155.765C206.761 155.765 204.581 153.585 204.581 150.897C204.581 148.209 206.761 146.029 209.452 146.029C212.142 146.029 214.323 148.209 214.323 150.897Z" fill="#008080"/>
<path d="M243.548 150.897C243.548 153.585 241.368 155.765 238.677 155.765C235.987 155.765 233.806 153.585 233.806 150.897C233.806 148.209 235.987 146.029 238.677 146.029C241.368 146.029 243.548 148.209 243.548 150.897Z" fill="#008080"/>
<path d="M272.774 150.897C272.774 153.585 270.593 155.765 267.903 155.765C265.213 155.765 263.032 153.585 263.032 150.897C263.032 148.209 265.213 146.029 267.903 146.029C270.593 146.029 272.774 148.209 272.774 150.897Z" fill="#008080"/>
<path d="M302 150.897C302 153.585 299.819 155.765 297.129 155.765C294.439 155.765 292.258 153.585 292.258 150.897C292.258 148.209 294.439 146.029 297.129 146.029C299.819 146.029 302 148.209 302 150.897Z" fill="#008080"/>
<path d="M9.74194 180.103C9.74194 182.791 7.56113 184.971 4.87097 184.971C2.18081 184.971 0 182.791 0 180.103C0 177.415 2.18081 175.235 4.87097 175.235C7.56113 175.235 9.74194 177.415 9.74194 180.103Z" fill="#008080"/>
<path d="M38.9677 180.103C38.9677 182.791 36.7869 184.971 34.0968 184.971C31.4066 184.971 29.2258 182.791 29.2258 180.103C29.2258 177.415 31.4066 175.235 34.0968 175.235C36.7869 175.235 38.9677 177.415 38.9677 180.103Z" fill="#008080"/>
<path d="M68.1936 180.103C68.1936 182.791 66.0127 184.971 63.3226 184.971C60.6324 184.971 58.4516 182.791 58.4516 180.103C58.4516 177.415 60.6324 175.235 63.3226 175.235C66.0127 175.235 68.1936 177.415 68.1936 180.103Z" fill="#008080"/>
<path d="M97.4194 180.103C97.4194 182.791 95.2385 184.971 92.5484 184.971C89.8582 184.971 87.6774 182.791 87.6774 180.103C87.6774 177.415 89.8582 175.235 92.5484 175.235C95.2385 175.235 97.4194 177.415 97.4194 180.103Z" fill="#008080"/>
<path d="M126.645 180.103C126.645 182.791 124.464 184.971 121.774 184.971C119.084 184.971 116.903 182.791 116.903 180.103C116.903 177.415 119.084 175.235 121.774 175.235C124.464 175.235 126.645 177.415 126.645 180.103Z" fill="#008080"/>
<path d="M155.871 180.103C155.871 182.791 153.69 184.971 151 184.971C148.31 184.971 146.129 182.791 146.129 180.103C146.129 177.415 148.31 175.235 151 175.235C153.69 175.235 155.871 177.415 155.871 180.103Z" fill="#008080"/>
<path d="M185.097 180.103C185.097 182.791 182.916 184.971 180.226 184.971C177.536 184.971 175.355 182.791 175.355 180.103C175.355 177.415 177.536 175.235 180.226 175.235C182.916 175.235 185.097 177.415 185.097 180.103Z" fill="#008080"/>
<path d="M214.323 180.103C214.323 182.791 212.142 184.971 209.452 184.971C206.761 184.971 204.581 182.791 204.581 180.103C204.581 177.415 206.761 175.235 209.452 175.235C212.142 175.235 214.323 177.415 214.323 180.103Z" fill="#008080"/>
<path d="M243.548 180.103C243.548 182.791 241.368 184.971 238.677 184.971C235.987 184.971 233.806 182.791 233.806 180.103C233.806 177.415 235.987 175.235 238.677 175.235C241.368 175.235 243.548 177.415 243.548 180.103Z" fill="#008080"/>
<path d="M272.774 180.103C272.774 182.791 270.593 184.971 267.903 184.971C265.213 184.971 263.032 182.791 263.032 180.103C263.032 177.415 265.213 175.235 267.903 175.235C270.593 175.235 272.774 177.415 272.774 180.103Z" fill="#008080"/>
<path d="M302 180.103C302 182.791 299.819 184.971 297.129 184.971C294.439 184.971 292.258 182.791 292.258 180.103C292.258 177.415 294.439 175.235 297.129 175.235C299.819 175.235 302 177.415 302 180.103Z" fill="#008080"/>
<path d="M9.74194 209.309C9.74194 211.997 7.56113 214.176 4.87097 214.176C2.18081 214.176 0 211.997 0 209.309C0 206.62 2.18081 204.441 4.87097 204.441C7.56113 204.441 9.74194 206.62 9.74194 209.309Z" fill="#008080"/>
<path d="M38.9677 209.309C38.9677 211.997 36.7869 214.176 34.0968 214.176C31.4066 214.176 29.2258 211.997 29.2258 209.309C29.2258 206.62 31.4066 204.441 34.0968 204.441C36.7869 204.441 38.9677 206.62 38.9677 209.309Z" fill="#008080"/>
<path d="M68.1936 209.309C68.1936 211.997 66.0127 214.176 63.3226 214.176C60.6324 214.176 58.4516 211.997 58.4516 209.309C58.4516 206.62 60.6324 204.441 63.3226 204.441C66.0127 204.441 68.1936 206.62 68.1936 209.309Z" fill="#008080"/>
<path d="M97.4194 209.309C97.4194 211.997 95.2385 214.176 92.5484 214.176C89.8582 214.176 87.6774 211.997 87.6774 209.309C87.6774 206.62 89.8582 204.441 92.5484 204.441C95.2385 204.441 97.4194 206.62 97.4194 209.309Z" fill="#008080"/>
<path d="M126.645 209.309C126.645 211.997 124.464 214.176 121.774 214.176C119.084 214.176 116.903 211.997 116.903 209.309C116.903 206.62 119.084 204.441 121.774 204.441C124.464 204.441 126.645 206.62 126.645 209.309Z" fill="#008080"/>
<path d="M155.871 209.309C155.871 211.997 153.69 214.176 151 214.176C148.31 214.176 146.129 211.997 146.129 209.309C146.129 206.62 148.31 204.441 151 204.441C153.69 204.441 155.871 206.62 155.871 209.309Z" fill="#008080"/>
<path d="M185.097 209.309C185.097 211.997 182.916 214.176 180.226 214.176C177.536 214.176 175.355 211.997 175.355 209.309C175.355 206.62 177.536 204.441 180.226 204.441C182.916 204.441 185.097 206.62 185.097 209.309Z" fill="#008080"/>
<path d="M214.323 209.309C214.323 211.997 212.142 214.176 209.452 214.176C206.761 214.176 204.581 211.997 204.581 209.309C204.581 206.62 206.761 204.441 209.452 204.441C212.142 204.441 214.323 206.62 214.323 209.309Z" fill="#008080"/>
<path d="M243.548 209.309C243.548 211.997 241.368 214.176 238.677 214.176C235.987 214.176 233.806 211.997 233.806 209.309C233.806 206.62 235.987 204.441 238.677 204.441C241.368 204.441 243.548 206.62 243.548 209.309Z" fill="#008080"/>
<path d="M272.774 209.309C272.774 211.997 270.593 214.176 267.903 214.176C265.213 214.176 263.032 211.997 263.032 209.309C263.032 206.62 265.213 204.441 267.903 204.441C270.593 204.441 272.774 206.62 272.774 209.309Z" fill="#008080"/>
<path d="M302 209.309C302 211.997 299.819 214.176 297.129 214.176C294.439 214.176 292.258 211.997 292.258 209.309C292.258 206.62 294.439 204.441 297.129 204.441C299.819 204.441 302 206.62 302 209.309Z" fill="#008080"/>
<path d="M9.74194 238.515C9.74194 241.203 7.56113 243.382 4.87097 243.382C2.18081 243.382 0 241.203 0 238.515C0 235.826 2.18081 233.647 4.87097 233.647C7.56113 233.647 9.74194 235.826 9.74194 238.515Z" fill="#008080"/>
<path d="M38.9677 238.515C38.9677 241.203 36.7869 243.382 34.0968 243.382C31.4066 243.382 29.2258 241.203 29.2258 238.515C29.2258 235.826 31.4066 233.647 34.0968 233.647C36.7869 233.647 38.9677 235.826 38.9677 238.515Z" fill="#008080"/>
<path d="M68.1936 238.515C68.1936 241.203 66.0127 243.382 63.3226 243.382C60.6324 243.382 58.4516 241.203 58.4516 238.515C58.4516 235.826 60.6324 233.647 63.3226 233.647C66.0127 233.647 68.1936 235.826 68.1936 238.515Z" fill="#008080"/>
<path d="M97.4194 238.515C97.4194 241.203 95.2385 243.382 92.5484 243.382C89.8582 243.382 87.6774 241.203 87.6774 238.515C87.6774 235.826 89.8582 233.647 92.5484 233.647C95.2385 233.647 97.4194 235.826 97.4194 238.515Z" fill="#008080"/>
<path d="M126.645 238.515C126.645 241.203 124.464 243.382 121.774 243.382C119.084 243.382 116.903 241.203 116.903 238.515C116.903 235.826 119.084 233.647 121.774 233.647C124.464 233.647 126.645 235.826 126.645 238.515Z" fill="#008080"/>
<path d="M155.871 238.515C155.871 241.203 153.69 243.382 151 243.382C148.31 243.382 146.129 241.203 146.129 238.515C146.129 235.826 148.31 233.647 151 233.647C153.69 233.647 155.871 235.826 155.871 238.515Z" fill="#008080"/>
<path d="M185.097 238.515C185.097 241.203 182.916 243.382 180.226 243.382C177.536 243.382 175.355 241.203 175.355 238.515C175.355 235.826 177.536 233.647 180.226 233.647C182.916 233.647 185.097 235.826 185.097 238.515Z" fill="#008080"/>
<path d="M214.323 238.515C214.323 241.203 212.142 243.382 209.452 243.382C206.761 243.382 204.581 241.203 204.581 238.515C204.581 235.826 206.761 233.647 209.452 233.647C212.142 233.647 214.323 235.826 214.323 238.515Z" fill="#008080"/>
<path d="M243.548 238.515C243.548 241.203 241.368 243.382 238.677 243.382C235.987 243.382 233.806 241.203 233.806 238.515C233.806 235.826 235.987 233.647 238.677 233.647C241.368 233.647 243.548 235.826 243.548 238.515Z" fill="#008080"/>
<path d="M272.774 238.515C272.774 241.203 270.593 243.382 267.903 243.382C265.213 243.382 263.032 241.203 263.032 238.515C263.032 235.826 265.213 233.647 267.903 233.647C270.593 233.647 272.774 235.826 272.774 238.515Z" fill="#008080"/>
<path d="M302 238.515C302 241.203 299.819 243.382 297.129 243.382C294.439 243.382 292.258 241.203 292.258 238.515C292.258 235.826 294.439 233.647 297.129 233.647C299.819 233.647 302 235.826 302 238.515Z" fill="#008080"/>
<path d="M9.74194 267.721C9.74194 270.409 7.56113 272.588 4.87097 272.588C2.18081 272.588 0 270.409 0 267.721C0 265.032 2.18081 262.853 4.87097 262.853C7.56113 262.853 9.74194 265.032 9.74194 267.721Z" fill="#008080"/>
<path d="M38.9677 267.721C38.9677 270.409 36.7869 272.588 34.0968 272.588C31.4066 272.588 29.2258 270.409 29.2258 267.721C29.2258 265.032 31.4066 262.853 34.0968 262.853C36.7869 262.853 38.9677 265.032 38.9677 267.721Z" fill="#008080"/>
<path d="M68.1936 267.721C68.1936 270.409 66.0127 272.588 63.3226 272.588C60.6324 272.588 58.4516 270.409 58.4516 267.721C58.4516 265.032 60.6324 262.853 63.3226 262.853C66.0127 262.853 68.1936 265.032 68.1936 267.721Z" fill="#008080"/>
<path d="M97.4194 267.721C97.4194 270.409 95.2385 272.588 92.5484 272.588C89.8582 272.588 87.6774 270.409 87.6774 267.721C87.6774 265.032 89.8582 262.853 92.5484 262.853C95.2385 262.853 97.4194 265.032 97.4194 267.721Z" fill="#008080"/>
<path d="M126.645 267.721C126.645 270.409 124.464 272.588 121.774 272.588C119.084 272.588 116.903 270.409 116.903 267.721C116.903 265.032 119.084 262.853 121.774 262.853C124.464 262.853 126.645 265.032 126.645 267.721Z" fill="#008080"/>
<path d="M155.871 267.721C155.871 270.409 153.69 272.588 151 272.588C148.31 272.588 146.129 270.409 146.129 267.721C146.129 265.032 148.31 262.853 151 262.853C153.69 262.853 155.871 265.032 155.871 267.721Z" fill="#008080"/>
<path d="M185.097 267.721C185.097 270.409 182.916 272.588 180.226 272.588C177.536 272.588 175.355 270.409 175.355 267.721C175.355 265.032 177.536 262.853 180.226 262.853C182.916 262.853 185.097 265.032 185.097 267.721Z" fill="#008080"/>
<path d="M214.323 267.721C214.323 270.409 212.142 272.588 209.452 272.588C206.761 272.588 204.581 270.409 204.581 267.721C204.581 265.032 206.761 262.853 209.452 262.853C212.142 262.853 214.323 265.032 214.323 267.721Z" fill="#008080"/>
<path d="M243.548 267.721C243.548 270.409 241.368 272.588 238.677 272.588C235.987 272.588 233.806 270.409 233.806 267.721C233.806 265.032 235.987 262.853 238.677 262.853C241.368 262.853 243.548 265.032 243.548 267.721Z" fill="#008080"/>
<path d="M272.774 267.721C272.774 270.409 270.593 272.588 267.903 272.588C265.213 272.588 263.032 270.409 263.032 267.721C263.032 265.032 265.213 262.853 267.903 262.853C270.593 262.853 272.774 265.032 272.774 267.721Z" fill="#008080"/>
<path d="M302 267.721C302 270.409 299.819 272.588 297.129 272.588C294.439 272.588 292.258 270.409 292.258 267.721C292.258 265.032 294.439 262.853 297.129 262.853C299.819 262.853 302 265.032 302 267.721Z" fill="#008080"/>
<path d="M9.74194 296.926C9.74194 299.615 7.56113 301.794 4.87097 301.794C2.18081 301.794 0 299.615 0 296.926C0 294.238 2.18081 292.059 4.87097 292.059C7.56113 292.059 9.74194 294.238 9.74194 296.926Z" fill="#008080"/>
<path d="M38.9677 296.926C38.9677 299.615 36.7869 301.794 34.0968 301.794C31.4066 301.794 29.2258 299.615 29.2258 296.926C29.2258 294.238 31.4066 292.059 34.0968 292.059C36.7869 292.059 38.9677 294.238 38.9677 296.926Z" fill="#008080"/>
<path d="M68.1936 296.926C68.1936 299.615 66.0127 301.794 63.3226 301.794C60.6324 301.794 58.4516 299.615 58.4516 296.926C58.4516 294.238 60.6324 292.059 63.3226 292.059C66.0127 292.059 68.1936 294.238 68.1936 296.926Z" fill="#008080"/>
<path d="M97.4194 296.926C97.4194 299.615 95.2385 301.794 92.5484 301.794C89.8582 301.794 87.6774 299.615 87.6774 296.926C87.6774 294.238 89.8582 292.059 92.5484 292.059C95.2385 292.059 97.4194 294.238 97.4194 296.926Z" fill="#008080"/>
<path d="M126.645 296.926C126.645 299.615 124.464 301.794 121.774 301.794C119.084 301.794 116.903 299.615 116.903 296.926C116.903 294.238 119.084 292.059 121.774 292.059C124.464 292.059 126.645 294.238 126.645 296.926Z" fill="#008080"/>
<path d="M155.871 296.926C155.871 299.615 153.69 301.794 151 301.794C148.31 301.794 146.129 299.615 146.129 296.926C146.129 294.238 148.31 292.059 151 292.059C153.69 292.059 155.871 294.238 155.871 296.926Z" fill="#008080"/>
<path d="M185.097 296.926C185.097 299.615 182.916 301.794 180.226 301.794C177.536 301.794 175.355 299.615 175.355 296.926C175.355 294.238 177.536 292.059 180.226 292.059C182.916 292.059 185.097 294.238 185.097 296.926Z" fill="#008080"/>
<path d="M214.323 296.926C214.323 299.615 212.142 301.794 209.452 301.794C206.761 301.794 204.581 299.615 204.581 296.926C204.581 294.238 206.761 292.059 209.452 292.059C212.142 292.059 214.323 294.238 214.323 296.926Z" fill="#008080"/>
<path d="M243.548 296.926C243.548 299.615 241.368 301.794 238.677 301.794C235.987 301.794 233.806 299.615 233.806 296.926C233.806 294.238 235.987 292.059 238.677 292.059C241.368 292.059 243.548 294.238 243.548 296.926Z" fill="#008080"/>
<path d="M272.774 296.926C272.774 299.615 270.593 301.794 267.903 301.794C265.213 301.794 263.032 299.615 263.032 296.926C263.032 294.238 265.213 292.059 267.903 292.059C270.593 292.059 272.774 294.238 272.774 296.926Z" fill="#008080"/>
<path d="M302 296.926C302 299.615 299.819 301.794 297.129 301.794C294.439 301.794 292.258 299.615 292.258 296.926C292.258 294.238 294.439 292.059 297.129 292.059C299.819 292.059 302 294.238 302 296.926Z" fill="#008080"/>
<path d="M9.74194 326.132C9.74194 328.821 7.56113 331 4.87097 331C2.18081 331 0 328.821 0 326.132C0 323.444 2.18081 321.265 4.87097 321.265C7.56113 321.265 9.74194 323.444 9.74194 326.132Z" fill="#008080"/>
<path d="M38.9677 326.132C38.9677 328.821 36.7869 331 34.0968 331C31.4066 331 29.2258 328.821 29.2258 326.132C29.2258 323.444 31.4066 321.265 34.0968 321.265C36.7869 321.265 38.9677 323.444 38.9677 326.132Z" fill="#008080"/>
<path d="M68.1936 326.132C68.1936 328.821 66.0127 331 63.3226 331C60.6324 331 58.4516 328.821 58.4516 326.132C58.4516 323.444 60.6324 321.265 63.3226 321.265C66.0127 321.265 68.1936 323.444 68.1936 326.132Z" fill="#008080"/>
<path d="M97.4194 326.132C97.4194 328.821 95.2385 331 92.5484 331C89.8582 331 87.6774 328.821 87.6774 326.132C87.6774 323.444 89.8582 321.265 92.5484 321.265C95.2385 321.265 97.4194 323.444 97.4194 326.132Z" fill="#008080"/>
<path d="M126.645 326.132C126.645 328.821 124.464 331 121.774 331C119.084 331 116.903 328.821 116.903 326.132C116.903 323.444 119.084 321.265 121.774 321.265C124.464 321.265 126.645 323.444 126.645 326.132Z" fill="#008080"/>
<path d="M155.871 326.132C155.871 328.821 153.69 331 151 331C148.31 331 146.129 328.821 146.129 326.132C146.129 323.444 148.31 321.265 151 321.265C153.69 321.265 155.871 323.444 155.871 326.132Z" fill="#008080"/>
<path d="M185.097 326.132C185.097 328.821 182.916 331 180.226 331C177.536 331 175.355 328.821 175.355 326.132C175.355 323.444 177.536 321.265 180.226 321.265C182.916 321.265 185.097 323.444 185.097 326.132Z" fill="#008080"/>
<path d="M214.323 326.132C214.323 328.821 212.142 331 209.452 331C206.761 331 204.581 328.821 204.581 326.132C204.581 323.444 206.761 321.265 209.452 321.265C212.142 321.265 214.323 323.444 214.323 326.132Z" fill="#008080"/>
<path d="M243.548 326.132C243.548 328.821 241.368 331 238.677 331C235.987 331 233.806 328.821 233.806 326.132C233.806 323.444 235.987 321.265 238.677 321.265C241.368 321.265 243.548 323.444 243.548 326.132Z" fill="#008080"/>
<path d="M272.774 326.132C272.774 328.821 270.593 331 267.903 331C265.213 331 263.032 328.821 263.032 326.132C263.032 323.444 265.213 321.265 267.903 321.265C270.593 321.265 272.774 323.444 272.774 326.132Z" fill="#008080"/>
<path d="M302 326.132C302 328.821 299.819 331 297.129 331C294.439 331 292.258 328.821 292.258 326.132C292.258 323.444 294.439 321.265 297.129 321.265C299.819 321.265 302 323.444 302 326.132Z" fill="#008080"/>
</g>
</svg>
