<svg width="46" height="47" viewBox="0 0 46 47" fill="none" xmlns="http://www.w3.org/2000/svg">
<path d="M19.197 5.94272C20.1649 1.95594 25.8348 1.95594 26.8027 5.94272C27.4279 8.51813 30.3785 9.74031 32.6417 8.36133C36.1452 6.22663 40.1544 10.2359 38.0197 13.7393C36.6408 16.0025 37.8629 18.9532 40.4383 19.5784C44.4251 20.5462 44.4251 26.2162 40.4383 27.184C37.8629 27.8093 36.6408 30.7599 38.0197 33.0231C40.1544 36.5265 36.1452 40.5358 32.6417 38.4011C30.3785 37.0221 27.4279 38.2443 26.8027 40.8197C25.8348 44.8065 20.1649 44.8065 19.197 40.8197C18.5718 38.2443 15.6212 37.0221 13.358 38.4011C9.85454 40.5358 5.84529 36.5265 7.97998 33.0231C9.35897 30.7599 8.13678 27.8093 5.56137 27.184C1.5746 26.2162 1.57459 20.5462 5.56137 19.5784C8.13678 18.9532 9.35897 16.0025 7.97998 13.7393C5.84528 10.2359 9.85454 6.22663 13.358 8.36133C15.6212 9.74031 18.5718 8.51813 19.197 5.94272Z" stroke="white" stroke-width="5" stroke-linecap="round" stroke-linejoin="round"/>
<path d="M29.8094 23.3812C29.8094 27.142 26.7607 30.1907 22.9999 30.1907C19.2391 30.1907 16.1903 27.142 16.1903 23.3812C16.1903 19.6204 19.2391 16.5717 22.9999 16.5717C26.7607 16.5717 29.8094 19.6204 29.8094 23.3812Z" stroke="white" stroke-width="5" stroke-linecap="round" stroke-linejoin="round"/>
</svg>
