<svg width="50" height="45" viewBox="0 0 50 45" fill="none" xmlns="http://www.w3.org/2000/svg">
<path d="M20.1111 10.6668H7.88889C5.18883 10.6668 3 12.8557 3 15.5557V37.5557C3 40.2558 5.18883 42.4446 7.88889 42.4446H42.1111C44.8112 42.4446 47 40.2558 47 37.5557V15.5557C47 12.8557 44.8112 10.6668 42.1111 10.6668H29.8889M20.1111 10.6668V8.22239C20.1111 5.52233 22.2999 3.3335 25 3.3335C27.7001 3.3335 29.8889 5.52233 29.8889 8.22239V10.6668M20.1111 10.6668C20.1111 13.3669 22.2999 15.5557 25 15.5557C27.7001 15.5557 29.8889 13.3669 29.8889 10.6668M17.6667 30.2224C20.3667 30.2224 22.5556 28.0336 22.5556 25.3335C22.5556 22.6334 20.3667 20.4446 17.6667 20.4446C14.9666 20.4446 12.7778 22.6334 12.7778 25.3335C12.7778 28.0336 14.9666 30.2224 17.6667 30.2224ZM17.6667 30.2224C20.8596 30.2224 23.5759 32.263 24.5826 35.1113M17.6667 30.2224C14.4737 30.2224 11.7572 32.263 10.7505 35.1113M32.3333 22.8891H39.6667M32.3333 32.6668H37.2222" stroke="white" stroke-width="5" stroke-linecap="round" stroke-linejoin="round"/>
</svg>
