<svg width="251" height="241" viewBox="0 0 251 241" fill="none" xmlns="http://www.w3.org/2000/svg">
<path fill-rule="evenodd" clip-rule="evenodd" d="M4.56714 2.96857L3.76786 0L2.96857 2.96857L0 3.76786L2.96857 4.56714L3.76786 7.53571L4.56714 4.56714L7.53571 3.76786L4.56714 2.96857ZM4.56714 70.79L3.76786 67.8214L2.96857 70.79L0 71.5893L2.96857 72.3886L3.76786 75.3571L4.56714 72.3886L7.53571 71.5893L4.56714 70.79ZM3.76786 135.643L4.56714 138.611L7.53571 139.411L4.56714 140.21L3.76786 143.179L2.96857 140.21L0 139.411L2.96857 138.611L3.76786 135.643ZM4.56714 206.433L3.76786 203.464L2.96857 206.433L0 207.232L2.96857 208.031L3.76786 211L4.56714 208.031L7.53571 207.232L4.56714 206.433ZM71.5893 0L72.3886 2.96857L75.3571 3.76786L72.3886 4.56714L71.5893 7.53571L70.79 4.56714L67.8214 3.76786L70.79 2.96857L71.5893 0ZM72.3886 70.79L71.5893 67.8214L70.79 70.79L67.8214 71.5893L70.79 72.3886L71.5893 75.3571L72.3886 72.3886L75.3571 71.5893L72.3886 70.79ZM71.5893 135.643L72.3886 138.611L75.3571 139.411L72.3886 140.21L71.5893 143.179L70.79 140.21L67.8214 139.411L70.79 138.611L71.5893 135.643ZM72.3886 206.433L71.5893 203.464L70.79 206.433L67.8214 207.232L70.79 208.031L71.5893 211L72.3886 208.031L75.3571 207.232L72.3886 206.433ZM139.411 0L140.21 2.96857L143.179 3.76786L140.21 4.56714L139.411 7.53571L138.611 4.56714L135.643 3.76786L138.611 2.96857L139.411 0ZM140.21 70.79L139.411 67.8214L138.611 70.79L135.643 71.5893L138.611 72.3886L139.411 75.3571L140.21 72.3886L143.179 71.5893L140.21 70.79ZM139.411 135.643L140.21 138.611L143.179 139.411L140.21 140.21L139.411 143.179L138.611 140.21L135.643 139.411L138.611 138.611L139.411 135.643ZM140.21 206.433L139.411 203.464L138.611 206.433L135.643 207.232L138.611 208.031L139.411 211L140.21 208.031L143.179 207.232L140.21 206.433ZM207.232 0L208.031 2.96857L211 3.76786L208.031 4.56714L207.232 7.53571L206.433 4.56714L203.464 3.76786L206.433 2.96857L207.232 0ZM208.031 70.79L207.232 67.8214L206.433 70.79L203.464 71.5893L206.433 72.3886L207.232 75.3571L208.031 72.3886L211 71.5893L208.031 70.79ZM207.232 135.643L208.031 138.611L211 139.411L208.031 140.21L207.232 143.179L206.433 140.21L203.464 139.411L206.433 138.611L207.232 135.643ZM208.031 206.433L207.232 203.464L206.433 206.433L203.464 207.232L206.433 208.031L207.232 211L208.031 208.031L211 207.232L208.031 206.433Z" fill="#FFD600"/>
<path fill-rule="evenodd" clip-rule="evenodd" d="M44.5671 32.9686L43.7679 30L42.9686 32.9686L40 33.7679L42.9686 34.5671L43.7679 37.5357L44.5671 34.5671L47.5357 33.7679L44.5671 32.9686ZM44.5671 100.79L43.7679 97.8214L42.9686 100.79L40 101.589L42.9686 102.389L43.7679 105.357L44.5671 102.389L47.5357 101.589L44.5671 100.79ZM43.7679 165.643L44.5671 168.611L47.5357 169.411L44.5671 170.21L43.7679 173.179L42.9686 170.21L40 169.411L42.9686 168.611L43.7679 165.643ZM44.5671 236.433L43.7679 233.464L42.9686 236.433L40 237.232L42.9686 238.031L43.7679 241L44.5671 238.031L47.5357 237.232L44.5671 236.433ZM111.589 30L112.389 32.9686L115.357 33.7679L112.389 34.5671L111.589 37.5357L110.79 34.5671L107.821 33.7679L110.79 32.9686L111.589 30ZM112.389 100.79L111.589 97.8214L110.79 100.79L107.821 101.589L110.79 102.389L111.589 105.357L112.389 102.389L115.357 101.589L112.389 100.79ZM111.589 165.643L112.389 168.611L115.357 169.411L112.389 170.21L111.589 173.179L110.79 170.21L107.821 169.411L110.79 168.611L111.589 165.643ZM112.389 236.433L111.589 233.464L110.79 236.433L107.821 237.232L110.79 238.031L111.589 241L112.389 238.031L115.357 237.232L112.389 236.433ZM179.411 30L180.21 32.9686L183.179 33.7679L180.21 34.5671L179.411 37.5357L178.611 34.5671L175.643 33.7679L178.611 32.9686L179.411 30ZM180.21 100.79L179.411 97.8214L178.611 100.79L175.643 101.589L178.611 102.389L179.411 105.357L180.21 102.389L183.179 101.589L180.21 100.79ZM179.411 165.643L180.21 168.611L183.179 169.411L180.21 170.21L179.411 173.179L178.611 170.21L175.643 169.411L178.611 168.611L179.411 165.643ZM180.21 236.433L179.411 233.464L178.611 236.433L175.643 237.232L178.611 238.031L179.411 241L180.21 238.031L183.179 237.232L180.21 236.433ZM247.232 30L248.031 32.9686L251 33.7679L248.031 34.5671L247.232 37.5357L246.433 34.5671L243.464 33.7679L246.433 32.9686L247.232 30ZM248.031 100.79L247.232 97.8214L246.433 100.79L243.464 101.589L246.433 102.389L247.232 105.357L248.031 102.389L251 101.589L248.031 100.79ZM247.232 165.643L248.031 168.611L251 169.411L248.031 170.21L247.232 173.179L246.433 170.21L243.464 169.411L246.433 168.611L247.232 165.643ZM248.031 236.433L247.232 233.464L246.433 236.433L243.464 237.232L246.433 238.031L247.232 241L248.031 238.031L251 237.232L248.031 236.433Z" fill="#FFD600"/>
</svg>
