<svg width="251" height="241" viewBox="0 0 251 241" fill="none" xmlns="http://www.w3.org/2000/svg">
<path fill-rule="evenodd" clip-rule="evenodd" d="M1.67893 28.5417C2.60618 28.5417 3.35786 27.79 3.35786 26.8628C3.35786 25.9355 2.60618 25.1838 1.67893 25.1838C0.751683 25.1838 0 25.9355 0 26.8628C0 27.79 0.751683 28.5417 1.67893 28.5417ZM1.67893 169.572C2.60618 169.572 3.35786 168.82 3.35786 167.893C3.35786 166.966 2.60618 166.214 1.67893 166.214C0.751683 166.214 0 166.966 0 167.893C0 168.82 0.751683 169.572 1.67893 169.572ZM144.388 26.8628C144.388 27.79 143.636 28.5417 142.709 28.5417C141.782 28.5417 141.03 27.79 141.03 26.8628C141.03 25.9355 141.782 25.1838 142.709 25.1838C143.636 25.1838 144.388 25.9355 144.388 26.8628ZM142.709 169.572C143.636 169.572 144.388 168.82 144.388 167.893C144.388 166.966 143.636 166.214 142.709 166.214C141.782 166.214 141.03 166.966 141.03 167.893C141.03 168.82 141.782 169.572 142.709 169.572ZM3.35786 97.3778C3.35786 98.3051 2.60618 99.0567 1.67893 99.0567C0.751683 99.0567 0 98.3051 0 97.3778C0 96.4506 0.751683 95.6989 1.67893 95.6989C2.60618 95.6989 3.35786 96.4506 3.35786 97.3778ZM1.67893 240.087C2.60618 240.087 3.35786 239.335 3.35786 238.408C3.35786 237.481 2.60618 236.729 1.67893 236.729C0.751683 236.729 0 237.481 0 238.408C0 239.335 0.751683 240.087 1.67893 240.087ZM144.388 97.3778C144.388 98.3051 143.636 99.0567 142.709 99.0567C141.782 99.0567 141.03 98.3051 141.03 97.3778C141.03 96.4506 141.782 95.6989 142.709 95.6989C143.636 95.6989 144.388 96.4506 144.388 97.3778ZM142.709 240.087C143.636 240.087 144.388 239.335 144.388 238.408C144.388 237.481 143.636 236.729 142.709 236.729C141.782 236.729 141.03 237.481 141.03 238.408C141.03 239.335 141.782 240.087 142.709 240.087ZM73.8729 26.8628C73.8729 27.79 73.1212 28.5417 72.194 28.5417C71.2667 28.5417 70.5151 27.79 70.5151 26.8628C70.5151 25.9355 71.2667 25.1838 72.194 25.1838C73.1212 25.1838 73.8729 25.9355 73.8729 26.8628ZM72.194 169.572C73.1212 169.572 73.8729 168.82 73.8729 167.893C73.8729 166.966 73.1212 166.214 72.194 166.214C71.2667 166.214 70.5151 166.966 70.5151 167.893C70.5151 168.82 71.2667 169.572 72.194 169.572ZM214.903 26.8628C214.903 27.79 214.151 28.5417 213.224 28.5417C212.297 28.5417 211.545 27.79 211.545 26.8628C211.545 25.9355 212.297 25.1838 213.224 25.1838C214.151 25.1838 214.903 25.9355 214.903 26.8628ZM213.224 169.572C214.151 169.572 214.903 168.82 214.903 167.893C214.903 166.966 214.151 166.214 213.224 166.214C212.297 166.214 211.545 166.966 211.545 167.893C211.545 168.82 212.297 169.572 213.224 169.572ZM73.8729 97.3778C73.8729 98.3051 73.1212 99.0567 72.194 99.0567C71.2667 99.0567 70.5151 98.3051 70.5151 97.3778C70.5151 96.4506 71.2667 95.6989 72.194 95.6989C73.1212 95.6989 73.8729 96.4506 73.8729 97.3778ZM72.194 240.087C73.1212 240.087 73.8729 239.335 73.8729 238.408C73.8729 237.481 73.1212 236.729 72.194 236.729C71.2667 236.729 70.5151 237.481 70.5151 238.408C70.5151 239.335 71.2667 240.087 72.194 240.087ZM214.903 97.3778C214.903 98.3051 214.151 99.0567 213.224 99.0567C212.297 99.0567 211.545 98.3051 211.545 97.3778C211.545 96.4506 212.297 95.6989 213.224 95.6989C214.151 95.6989 214.903 96.4506 214.903 97.3778ZM213.224 240.087C214.151 240.087 214.903 239.335 214.903 238.408C214.903 237.481 214.151 236.729 213.224 236.729C212.297 236.729 211.545 237.481 211.545 238.408C211.545 239.335 212.297 240.087 213.224 240.087Z" fill="#008080"/>
<path fill-rule="evenodd" clip-rule="evenodd" d="M37.7759 3.35786C38.7031 3.35786 39.4548 2.60618 39.4548 1.67893C39.4548 0.751683 38.7031 0 37.7759 0C36.8486 0 36.0969 0.751683 36.0969 1.67893C36.0969 2.60618 36.8486 3.35786 37.7759 3.35786ZM37.7759 144.388C38.7031 144.388 39.4548 143.636 39.4548 142.709C39.4548 141.782 38.7031 141.03 37.7759 141.03C36.8486 141.03 36.0969 141.782 36.0969 142.709C36.0969 143.636 36.8486 144.388 37.7759 144.388ZM180.485 1.67893C180.485 2.60618 179.733 3.35786 178.806 3.35786C177.879 3.35786 177.127 2.60618 177.127 1.67893C177.127 0.751683 177.879 0 178.806 0C179.733 0 180.485 0.751683 180.485 1.67893ZM178.806 144.388C179.733 144.388 180.485 143.636 180.485 142.709C180.485 141.782 179.733 141.03 178.806 141.03C177.879 141.03 177.127 141.782 177.127 142.709C177.127 143.636 177.879 144.388 178.806 144.388ZM39.4548 72.194C39.4548 73.1212 38.7031 73.8729 37.7759 73.8729C36.8486 73.8729 36.0969 73.1212 36.0969 72.194C36.0969 71.2667 36.8486 70.5151 37.7759 70.5151C38.7031 70.5151 39.4548 71.2667 39.4548 72.194ZM37.7759 214.903C38.7031 214.903 39.4548 214.151 39.4548 213.224C39.4548 212.297 38.7031 211.545 37.7759 211.545C36.8486 211.545 36.0969 212.297 36.0969 213.224C36.0969 214.151 36.8486 214.903 37.7759 214.903ZM180.485 72.194C180.485 73.1212 179.733 73.8729 178.806 73.8729C177.879 73.8729 177.127 73.1212 177.127 72.194C177.127 71.2667 177.879 70.5151 178.806 70.5151C179.733 70.5151 180.485 71.2667 180.485 72.194ZM178.806 214.903C179.733 214.903 180.485 214.151 180.485 213.224C180.485 212.297 179.733 211.545 178.806 211.545C177.879 211.545 177.127 212.297 177.127 213.224C177.127 214.151 177.879 214.903 178.806 214.903ZM109.97 1.67893C109.97 2.60618 109.218 3.35786 108.291 3.35786C107.364 3.35786 106.612 2.60618 106.612 1.67893C106.612 0.751683 107.364 0 108.291 0C109.218 0 109.97 0.751683 109.97 1.67893ZM108.291 144.388C109.218 144.388 109.97 143.636 109.97 142.709C109.97 141.782 109.218 141.03 108.291 141.03C107.364 141.03 106.612 141.782 106.612 142.709C106.612 143.636 107.364 144.388 108.291 144.388ZM251 1.67893C251 2.60618 250.248 3.35786 249.321 3.35786C248.394 3.35786 247.642 2.60618 247.642 1.67893C247.642 0.751683 248.394 0 249.321 0C250.248 0 251 0.751683 251 1.67893ZM249.321 144.388C250.248 144.388 251 143.636 251 142.709C251 141.782 250.248 141.03 249.321 141.03C248.394 141.03 247.642 141.782 247.642 142.709C247.642 143.636 248.394 144.388 249.321 144.388ZM109.97 72.194C109.97 73.1212 109.218 73.8729 108.291 73.8729C107.364 73.8729 106.612 73.1212 106.612 72.194C106.612 71.2667 107.364 70.5151 108.291 70.5151C109.218 70.5151 109.97 71.2667 109.97 72.194ZM108.291 214.903C109.218 214.903 109.97 214.151 109.97 213.224C109.97 212.297 109.218 211.545 108.291 211.545C107.364 211.545 106.612 212.297 106.612 213.224C106.612 214.151 107.364 214.903 108.291 214.903ZM251 72.194C251 73.1212 250.248 73.8729 249.321 73.8729C248.394 73.8729 247.642 73.1212 247.642 72.194C247.642 71.2667 248.394 70.5151 249.321 70.5151C250.248 70.5151 251 71.2667 251 72.194ZM249.321 214.903C250.248 214.903 251 214.151 251 213.224C251 212.297 250.248 211.545 249.321 211.545C248.394 211.545 247.642 212.297 247.642 213.224C247.642 214.151 248.394 214.903 249.321 214.903Z" fill="#008080"/>
</svg>
