<svg width="35" height="35" viewBox="0 0 35 35" fill="none" xmlns="http://www.w3.org/2000/svg">
<path fill-rule="evenodd" clip-rule="evenodd" d="M18.6946 35H1.93173C0.864552 35 0 34.1349 0 33.0681V1.93172C0 0.864686 0.864688 0 1.93173 0H33.0684C34.1352 0 35 0.864686 35 1.93172V33.0681C35 34.135 34.135 35 33.0684 35H24.1495V21.4461H28.6989L29.3801 16.1639H24.1495V12.7915C24.1495 11.2622 24.5742 10.22 26.7672 10.22L29.5643 10.2188V5.49434C29.0805 5.42997 27.4202 5.28615 25.4884 5.28615C21.4556 5.28615 18.6946 7.74778 18.6946 12.2684V16.1639H14.1335V21.4461H18.6946V35Z" fill="white"/>
</svg>
