<svg width="133" height="140" viewBox="0 0 133 140" fill="#fff" xmlns="http://www.w3.org/2000/svg">
<path d="M66.5 0.39917C29.7715 0.39917 0 31.5215 0 69.9034C0 108.291 29.7715 139.408 66.5 139.408C103.223 139.408 133 108.285 133 69.9034C133 31.5215 103.223 0.39917 66.5 0.39917ZM50.2088 88.5674C50.2088 92.3237 47.2964 95.3618 43.708 95.3618C40.1141 95.3618 37.2073 92.3237 37.2073 88.5674V59.5999C37.2073 55.8436 40.1141 52.7996 43.708 52.7996C47.2964 52.7996 50.2088 55.8436 50.2088 59.5999V88.5674ZM96.1307 88.0787C96.1307 93.3894 93.162 95.2911 88.0808 95.2911H64.703C59.6219 95.2911 55.504 90.9872 55.504 85.6765V61.643C55.504 61.643 55.0477 57.6452 59.2839 53.8889C61.678 51.7634 65.2325 47.7068 67.7168 42.7847C72.6515 33.0052 75.6033 30.1556 77.8509 30.921C86.1768 33.7412 82.0138 46.6411 79.3268 52.0283H86.9316C92.0072 52.0283 96.1307 56.3323 96.1307 61.643V88.0787Z" fill="#FFD600"/>
</svg>
