<svg width="38" height="39" viewBox="0 0 38 39" fill="none" xmlns="http://www.w3.org/2000/svg">
<path d="M32.2031 32.7032H26.6469V24C26.6469 21.925 26.6094 19.2532 23.7563 19.2532C20.8625 19.2532 20.4188 21.5157 20.4188 23.8469V32.7032H14.8625V14.8063H20.1969V17.2532H20.2719C21.3594 15.3969 23.3844 14.2844 25.5344 14.3625C31.1656 14.3625 32.2062 18.0657 32.2062 22.8875L32.2031 32.7V32.7032ZM8.59375 12.3594C7.74023 12.3553 6.92279 12.0147 6.31896 11.4114C5.71514 10.8082 5.37368 9.99106 5.36875 9.13755C5.36875 7.3688 6.825 5.91255 8.59375 5.91255C10.3625 5.91255 11.8156 7.3688 11.8188 9.13755C11.8188 10.9063 10.3625 12.3594 8.59375 12.3594ZM11.3719 32.7032H5.80938V14.8063H11.3719V32.7032ZM34.9688 0.750046H3.01562C2.2911 0.745838 1.59418 1.02773 1.07632 1.53447C0.558465 2.04121 0.261515 2.73185 0.25 3.4563V35.5438C0.261515 36.2682 0.558465 36.9589 1.07632 37.4656C1.59418 37.9724 2.2911 38.2543 3.01562 38.25H34.9719C35.6981 38.2559 36.3973 37.975 36.9175 37.4682C37.4377 36.9615 37.7369 36.2699 37.75 35.5438V3.45317C37.7368 2.72763 37.4375 2.0367 36.9171 1.53095C36.3967 1.0252 35.6975 0.74563 34.9719 0.753171L34.9688 0.750046Z" fill="white"/>
</svg>
