<svg width="46" height="34" viewBox="0 0 46 34" fill="none" xmlns="http://www.w3.org/2000/svg">
<path fill-rule="evenodd" clip-rule="evenodd" d="M6.8999 8.36826C6.8999 7.45699 7.92965 6.71826 9.1999 6.71826H36.7999C38.0702 6.71826 39.0999 7.45699 39.0999 8.36826C39.0999 9.27953 38.0702 10.0183 36.7999 10.0183H9.1999C7.92965 10.0183 6.8999 9.27953 6.8999 8.36826Z" fill="#008080"/>
<path fill-rule="evenodd" clip-rule="evenodd" d="M6.8999 16.6183C6.8999 15.707 7.92965 14.9683 9.1999 14.9683H36.7999C38.0702 14.9683 39.0999 15.707 39.0999 16.6183C39.0999 17.5295 38.0702 18.2683 36.7999 18.2683H9.1999C7.92965 18.2683 6.8999 17.5295 6.8999 16.6183Z" fill="#008080"/>
<path fill-rule="evenodd" clip-rule="evenodd" d="M20.6999 24.8683C20.6999 23.957 21.7296 23.2183 22.9999 23.2183H36.7999C38.0702 23.2183 39.0999 23.957 39.0999 24.8683C39.0999 25.7795 38.0702 26.5183 36.7999 26.5183H22.9999C21.7296 26.5183 20.6999 25.7795 20.6999 24.8683Z" fill="#008080"/>
</svg>
