<svg width="72" height="72" viewBox="0 0 72 72" fill="none" xmlns="http://www.w3.org/2000/svg">
<circle cx="36" cy="36" r="36" fill="#FFD600"/>
<rect width="51.84" height="51.84" transform="translate(10.0801 10.0801)" fill="#FFD600"/>
<path fill-rule="evenodd" clip-rule="evenodd" d="M26.3243 19.0354C27.9911 18.9024 29.5735 18.2469 30.8462 17.1624C33.8161 14.6314 38.1842 14.6314 41.1542 17.1624C42.4268 18.2469 44.0092 18.9024 45.6761 19.0354C49.5658 19.3458 52.6545 22.4346 52.9649 26.3243C53.0979 27.9911 53.7534 29.5735 54.8379 30.8462C57.3689 33.8161 57.3689 38.1842 54.8379 41.1542C53.7534 42.4268 53.0979 44.0092 52.9649 45.6761C52.6545 49.5658 49.5658 52.6545 45.6761 52.9649C44.0092 53.0979 42.4268 53.7534 41.1542 54.8379C38.1842 57.3689 33.8161 57.3689 30.8462 54.8379C29.5735 53.7534 27.9911 53.0979 26.3243 52.9649C22.4346 52.6545 19.3458 49.5658 19.0354 45.6761C18.9024 44.0092 18.2469 42.4268 17.1624 41.1542C14.6314 38.1842 14.6314 33.8161 17.1624 30.8462C18.2469 29.5735 18.9024 27.9911 19.0354 26.3243C19.3458 22.4346 22.4346 19.3458 26.3243 19.0354ZM45.609 32.649C46.6212 31.6367 46.6212 29.9956 45.609 28.9833C44.5967 27.9711 42.9556 27.9711 41.9433 28.9833L33.4082 37.5185L30.057 34.1673C29.0447 33.1551 27.4036 33.1551 26.3913 34.1673C25.3791 35.1796 25.3791 36.8207 26.3913 37.833L31.5753 43.017C32.5876 44.0292 34.2287 44.0292 35.241 43.017L45.609 32.649Z" fill="white"/>
</svg>
