<svg width="30" height="31" viewBox="0 0 30 31" fill="none" xmlns="http://www.w3.org/2000/svg">
<path fill-rule="evenodd" clip-rule="evenodd" d="M15.0002 30.2999C23.174 30.2999 29.8002 23.6738 29.8002 15.5C29.8002 7.32614 23.174 0.699951 15.0002 0.699951C6.82638 0.699951 0.200195 7.32614 0.200195 15.5C0.200195 23.6738 6.82638 30.2999 15.0002 30.2999ZM14.1764 10.2607C13.6087 9.8822 12.8788 9.84692 12.2773 10.1689C11.6757 10.4908 11.3002 11.1177 11.3002 11.8V19.2C11.3002 19.8822 11.6757 20.5091 12.2773 20.8311C12.8788 21.153 13.6087 21.1177 14.1764 20.7392L19.7264 17.0392C20.2411 16.6961 20.5502 16.1185 20.5502 15.5C20.5502 14.8814 20.2411 14.3038 19.7264 13.9607L14.1764 10.2607Z" fill="url(#paint0_linear_1371_464)"/>
<defs>
<linearGradient id="paint0_linear_1371_464" x1="9.37375" y1="15.1558" x2="30.319" y2="16.2634" gradientUnits="userSpaceOnUse">
<stop stop-color="#008080"/>
<stop offset="1" stop-color="#001A1A"/>
</linearGradient>
</defs>
</svg>
