<svg width="26" height="25" viewBox="0 0 26 25" fill="none" xmlns="http://www.w3.org/2000/svg">
<path d="M12.3082 1.12908C12.526 0.458938 13.474 0.458937 13.6918 1.12908L16.2044 8.86214C16.3018 9.16183 16.5811 9.36475 16.8962 9.36475H25.0272C25.7318 9.36475 26.0248 10.2664 25.4547 10.6806L18.8766 15.4599C18.6217 15.6451 18.515 15.9734 18.6124 16.2731L21.125 24.0062C21.3427 24.6763 20.5757 25.2336 20.0057 24.8194L13.4275 20.0401C13.1726 19.8549 12.8274 19.8549 12.5725 20.0401L5.99433 24.8194C5.42427 25.2336 4.65726 24.6763 4.875 24.0062L7.38762 16.2731C7.485 15.9734 7.37833 15.6451 7.12339 15.4599L0.545257 10.6806C-0.0248013 10.2664 0.268169 9.36475 0.972799 9.36475H9.10382C9.41894 9.36475 9.69822 9.16183 9.7956 8.86214L12.3082 1.12908Z" fill="#FFD600"/>
</svg>
