<svg width="50" height="51" viewBox="0 0 50 51" fill="none" xmlns="http://www.w3.org/2000/svg">
<path d="M25 47.375C37.0812 47.375 46.875 37.5812 46.875 25.5C46.875 13.4188 37.0812 3.625 25 3.625C12.9188 3.625 3.125 13.4188 3.125 25.5C3.125 37.5812 12.9188 47.375 25 47.375Z" fill="white"/>
<path d="M35.9166 16.4512C36.1112 15.1927 34.9147 14.1993 33.7956 14.6906L11.5075 24.4762C10.705 24.8286 10.7637 26.0442 11.596 26.3092L16.1923 27.773C17.0697 28.0523 18.0195 27.9078 18.7856 27.3786L29.1484 20.2192C29.4609 20.0033 29.8016 20.4477 29.5345 20.7228L22.0752 28.4134C21.3516 29.1595 21.4952 30.4237 22.3656 30.9695L30.7172 36.2067C31.6539 36.7941 32.8589 36.2041 33.0341 35.072L35.9166 16.4512Z" fill="#008080"/>
</svg>
