<svg width="50" height="42" viewBox="0 0 50 42" fill="none" xmlns="http://www.w3.org/2000/svg">
<path d="M30.6711 8.48588C30.6711 11.6181 28.1319 14.1573 24.9996 14.1573C21.8674 14.1573 19.3282 11.6181 19.3282 8.48588C19.3282 5.35364 21.8674 2.81445 24.9996 2.81445C28.1319 2.81445 30.6711 5.35364 30.6711 8.48588ZM44.2901 13.9335C44.2901 15.5614 42.9704 16.8811 41.3425 16.8811C39.7146 16.8811 38.3949 15.5614 38.3949 13.9335C38.3949 12.3056 39.7146 10.9859 41.3425 10.9859C42.9704 10.9859 44.2901 12.3056 44.2901 13.9335ZM24.9996 24.6049C29.6362 24.6049 33.3949 28.3636 33.3949 33.0002V38.6716H16.6044V33.0002C16.6044 28.3636 20.3631 24.6049 24.9996 24.6049ZM11.6044 13.9335C11.6044 15.5614 10.2847 16.8811 8.65678 16.8811C7.02886 16.8811 5.70916 15.5614 5.70916 13.9335C5.70916 12.3056 7.02886 10.9859 8.65678 10.9859C10.2847 10.9859 11.6044 12.3056 11.6044 13.9335ZM43.8425 38.6716V33.0002C43.8425 31.1222 43.5671 29.3061 43.0541 27.5916C45.3498 28.3174 47.0139 30.4644 47.0139 33.0002V38.6716H43.8425ZM2.98535 38.6716V33.0002C2.98535 30.4644 4.64949 28.3174 6.94522 27.5916C6.43221 29.3061 6.15678 31.1222 6.15678 33.0002V38.6716H2.98535Z" fill="white" stroke="white" stroke-width="5"/>
</svg>
