<svg width="37" height="31" viewBox="0 0 37 31" fill="none" xmlns="http://www.w3.org/2000/svg">
<path fill-rule="evenodd" clip-rule="evenodd" d="M37 4.05091C35.6398 4.65385 34.1758 5.05992 32.6405 5.24326C34.2079 4.30562 35.4116 2.8218 35.9776 1.05372C34.5125 1.9223 32.8859 2.55109 31.1582 2.89193C29.7731 1.42041 27.7987 0.5 25.6171 0.5C21.4253 0.5 18.0264 3.8911 18.0264 8.07325C18.0264 8.6662 18.0942 9.24453 18.2237 9.79949C11.9145 9.48448 6.3216 6.46868 2.57751 1.88662C1.92385 3.00514 1.55015 4.30562 1.55015 5.69362C1.55015 8.32058 2.88831 10.6387 4.92686 11.997C3.68119 11.9576 2.51215 11.6168 1.48725 11.0495V11.1443C1.48725 14.8147 4.10546 17.8746 7.5759 18.5723C6.9395 18.7446 6.26857 18.8381 5.57683 18.8381C5.08719 18.8381 4.61112 18.7901 4.14739 18.7015C5.11309 21.7099 7.91754 23.9001 11.2386 23.9616C8.64135 25.9918 5.36839 27.2037 1.81161 27.2037C1.19741 27.2037 0.593233 27.168 0 27.0966C3.35945 29.245 7.34897 30.5 11.6357 30.5C25.5974 30.5 33.2325 18.9599 33.2325 8.9529C33.2325 8.62436 33.2263 8.2972 33.2103 7.97358C34.6951 6.90305 35.9825 5.56934 37 4.05091Z" fill="white"/>
</svg>
